<svg id="Capa_1" enable-background="new 0 0 512 512" height="512" viewBox="0 0 512 512" width="512" xmlns="http://www.w3.org/2000/svg"><g><g><path d="m121.345 317.105c-11.772.156-23.517 2.801-34.342 7.961-16.096 7.673-34.15 10.243-51.664 6.896l-7.852-1.5c-2.779-.531-5.217 1.908-4.686 4.686l1.501 7.852c3.347 17.514.777 35.568-6.896 51.664-14.532 30.486-9.221 68.268 15.933 93.422 23.686 23.686 58.562 29.761 88.007 18.259v-189.24z" fill="#fe9901"/><path d="m121.345 348.458c-17.365-9.363-34.822-12.831-48.358-9.376-11.309 2.886-25.21 1.303-39.871-4.897l-6.573-2.78c-2.326-.984-3.782.473-2.799 2.799l2.78 6.573c6.2 14.661 7.783 28.562 4.897 39.871-5.466 21.42 6.384 52.662 31.538 77.816 18.284 18.284 39.778 29.521 58.385 32.206v-142.212z" fill="#fb8801"/><path d="m121.345 399.615c-25.074-25.034-49.75-43.236-62.187-46.704-6.587-1.837-16.389-7.518-28.235-16.533l-5.311-4.042c-1.879-1.43-2.367-.943-.937.937l4.042 5.311c9.015 11.846 14.696 21.649 16.533 28.235 3.479 12.475 21.781 37.266 46.935 62.419 10.031 10.031 20.002 18.969 29.159 26.315v-55.938z" fill="#fe9901"/></g><g><g><g fill="#0ed290"><path d="m122.775 52.974c3.689-2.13 7.702-3.545 11.819-4.224l1.236-41.023c.124-4.14-3.131-7.598-7.271-7.723-4.19-.131-7.598 3.132-7.723 7.271l-1.435 47.646z"/><path d="m112.376 58.978 3.374-1.948-41.98-22.581c-3.649-1.96-8.196-.594-10.158 3.053-1.962 3.648-.595 8.196 3.053 10.158l36.129 19.432c2.627-3.204 5.863-5.967 9.582-8.114z"/></g><path d="m112.376 58.978 10.399-6.004c1.361-.786 2.768-1.474 4.206-2.068l-13.695-37.648c-1.415-3.893-5.721-5.907-9.611-4.484-3.893 1.416-5.9 5.719-4.484 9.611l5.648 15.53-10.625-12.658c-2.663-3.171-7.395-3.585-10.566-.922s-3.585 7.394-.922 10.566l25.762 30.691c1.229-.946 2.522-1.826 3.888-2.614z" fill="#00c285"/><g><path d="m135.076 149.322c1.098-.162 2.157-.211 3.213-.211 5.92 0 12.015 1.529 17.624 4.423.298.154.63.235.96.235 1.113 0 2.02-.876 2.063-1.994.448-11.467 4.323-22.068 10.855-30.243-.234-10.324 3.975-20.606 12.318-27.95l.771-.679-.698-.753c-1.009-1.086-1.934-2.204-2.75-3.323-4.967-6.811-7.362-14.95-6.912-23.254-5.359-8.035-13.201-13.778-22.005-16.65-9.397-3.066-19.678-1.758-28.239 3.184l-10.4 6.005c-8.561 4.942-14.834 13.192-16.877 22.863-2.588 12.248.228 25.602 9.138 36.08l30.828 36.253c-.032-1.333-.012-2.664.111-3.986z" fill="#fe9901"/></g><g><path d="m135.076 149.322c1.098-.162 2.157-.211 3.213-.211 5.92 0 12.015 1.529 17.624 4.423.298.154.63.235.96.235 1.113 0 2.02-.876 2.063-1.994.273-6.992 1.831-13.658 4.474-19.656l-30.376-35.723c-8.91-10.478-11.726-23.832-9.138-36.08.836-3.955 2.389-7.665 4.506-11.016-2.111.742-4.166 1.673-6.127 2.806l-10.4 6.005c-8.56 4.942-14.834 13.192-16.877 22.863-2.588 12.248.228 25.602 9.138 36.08l30.828 36.253c-.031-1.332-.011-2.663.112-3.985z" fill="#fb8801"/></g></g><g><g><path d="m168.897 122.681c2.147-2.87 4.601-5.472 7.351-7.726 10.517 8.545 16.826 21.966 17.406 36.82.044 1.118.95 1.994 2.063 1.994.33 0 .662-.081.961-.235 5.608-2.894 11.703-4.423 17.624-4.423 1.055 0 2.114.049 3.148.146.733 7.222-.874 14.638-4.583 21.514-.349.646-.333 1.405.042 2.033s1.031 1.003 1.756 1.003c.13 0 .264-.013.399-.039 2.888-.56 5.798-.843 8.648-.843 1.397 0 2.799.068 4.166.204.497 4.413.241 8.911-.692 13.437l-.652 3.162 2.325-2.239c8.312-8.005 19.243-12.413 30.781-12.413l.194.004h.914l.082-.91c2.073-23.013 21.079-40.367 44.21-40.367 7.864 0 15.604 2.095 22.379 6.058l1.95 1.141-8.358-39.554c-.377-.583-.768-1.16-1.182-1.728-5.672-7.778-13.792-12.714-22.53-14.524.947-8.873-1.271-18.113-6.943-25.891-11.435-15.68-32.815-19.808-49.155-10.05-.716-1.274-1.505-2.523-2.387-3.733-12.121-16.622-35.422-20.27-52.044-8.148-16.621 12.122-20.27 35.422-8.148 52.044.882 1.21 1.83 2.343 2.824 3.414-8.749 7.703-13.107 18.801-12.549 29.849z" fill="#a2e62e"/></g><g><path d="m168.897 122.681c2.147-2.87 4.601-5.472 7.351-7.726 10.517 8.545 16.826 21.966 17.406 36.82.044 1.118.95 1.994 2.063 1.994.33 0 .662-.081.961-.235 5.608-2.894 11.703-4.423 17.624-4.423 1.055 0 2.114.049 3.148.146.733 7.222-.874 14.638-4.583 21.514-.349.646-.333 1.405.042 2.033s1.031 1.003 1.756 1.003c.13 0 .264-.013.399-.039 2.888-.56 5.798-.843 8.648-.843 1.397 0 2.799.068 4.166.204.497 4.413.241 8.911-.692 13.437l-.652 3.162 2.325-2.239c4.085-3.935 8.805-6.995 13.917-9.095-2.37-5.794-3.192-11.992-2.548-18.021-8.738-1.81-16.858-6.746-22.53-14.524-11.435-15.68-8.83-37.299 5.454-49.875-.994-1.072-1.942-2.204-2.824-3.414-12.121-16.621-8.473-39.922 8.148-52.043 1.109-.809 2.251-1.542 3.414-2.212-12.793-10.176-31.272-11.032-45.12-.933-16.622 12.121-20.27 35.422-8.148 52.044.882 1.21 1.83 2.343 2.824 3.414-8.749 7.705-13.107 18.803-12.549 29.851z" fill="#97d729"/></g><g><path d="m200.237 124.68 52.443 15.798 9.901 13.577-33.476-10.084c-3.963-1.194-8.149 1.052-9.345 5.019-1.194 3.966 1.053 8.149 5.019 9.345l36.745 11.069c3.071-15.49 13.972-27.806 28.337-32.966l.467-25.906c.074-4.141-3.223-7.559-7.364-7.634-.046-.001-.092-.001-.138-.001-4.079 0-7.422 3.27-7.496 7.365l-.63 34.956-9.902-13.578.987-54.762c.074-4.141-3.223-7.559-7.364-7.634-.046-.001-.092-.001-.138-.001-4.079 0-7.422 3.27-7.496 7.365l-.63 34.956-22.023-30.199c-2.44-3.349-7.135-4.083-10.479-1.641-3.347 2.44-4.081 7.132-1.641 10.479l22.023 30.199-33.476-10.084c-3.961-1.194-8.15 1.052-9.345 5.019-1.192 3.964 1.055 8.147 5.021 9.343z" fill="#8bc727"/></g></g><g><path d="m293.951 191.312.772.94.772-.94c8.476-10.318 20.98-16.236 34.31-16.236 1.799 0 3.644.115 5.484.342l1.39.172-7.583-35.885c-6.976-4.368-15.217-6.902-24.055-6.902-24.023 0-43.675 18.662-45.281 42.277 13.285.035 25.741 5.945 34.191 16.232z" fill="#fe9901"/></g><g><path d="m294.724 190.66c.279-.339.571-.667.859-.998-.953-3.661-1.466-7.499-1.466-11.459 0-18.97 11.639-35.215 28.163-42.004-5.316-2.184-11.134-3.397-17.238-3.397-23.683 0-43.121 18.137-45.205 41.278 14.053.06 26.599 6.501 34.887 16.58z" fill="#fb8801"/></g><g><path d="m217.075 209.643c9.023-10.98 13.076-24.326 11.867-36.545-.05-.506-.458-.914-.964-.964-4.279-.423-8.697-.2-13.104.653-.876.17-1.55-.755-1.127-1.541 3.816-7.073 5.439-14.786 4.763-22.017-.048-.509-.458-.92-.967-.968-6.994-.654-14.442.834-21.323 4.384-.706.364-1.536-.115-1.567-.909-.607-15.533-7.447-29.166-17.677-37.555-.393-.323-.969-.323-1.362 0-10.23 8.389-17.07 22.022-17.677 37.555-.031.794-.86 1.273-1.567.909-6.882-3.55-14.329-5.038-21.324-4.384-.509.048-.92.459-.967.968-.676 7.231.947 14.944 4.763 22.017.424.786-.25 1.711-1.127 1.541-4.406-.854-8.824-1.076-13.104-.653-.506.05-.914.458-.964.964-1.208 12.219 2.844 25.565 11.868 36.545z" fill="#0ed290"/><path d="m155.125 209.643c-.438-10.153 1.244-21.357 5.324-32.548 6.795-18.639 18.692-33.056 31.582-40.217-2.97-9.223-8.256-17.121-15.054-22.695-.393-.323-.969-.323-1.362 0-10.23 8.389-17.07 22.022-17.677 37.555-.031.794-.86 1.273-1.567.909-6.882-3.549-14.329-5.038-21.324-4.384-.509.048-.92.459-.967.968-.676 7.231.947 14.944 4.763 22.017.424.786-.25 1.711-1.127 1.541-4.406-.854-8.824-1.076-13.104-.653-.506.05-.914.458-.964.964-1.208 12.218 2.844 25.564 11.868 36.544h19.609z" fill="#00c285"/><path d="m183.796 209.643v-31.843c0-4.143-3.357-7.5-7.5-7.5s-7.5 3.357-7.5 7.5v31.843z" fill="#07b27b"/></g><g><path d="m388.929 209.643v-207.579c0-1.14-.924-2.064-2.064-2.064h-26.946c-1.14 0-2.063.924-2.063 2.064v207.579z" fill="#0ed290"/><path d="m372.41 209.643v-207.58c0-1.139.924-2.063 2.064-2.063h-14.555c-1.14 0-2.063.924-2.063 2.063v207.579h14.554z" fill="#00c285"/><path d="m440.762 23.305h-26.854c-.975 0-1.818.683-2.019 1.637l-39.031 184.701h31.073l38.851-183.847c.27-1.284-.709-2.491-2.02-2.491z" fill="#00c285"/><path d="m413.907 23.305c-.975 0-1.817.683-2.019 1.637l-39.031 184.701h14.074l39.031-184.701c.202-.954 1.044-1.637 2.019-1.637z" fill="#07b27b"/><path d="m342.855 209.643h31.073l-39.031-184.701c-.202-.954-1.044-1.637-2.019-1.637h-26.855c-1.311 0-2.29 1.207-2.019 2.49z" fill="#0ed290"/><path d="m342.855 209.643h14.868l-38.851-183.848c-.271-1.283.708-2.49 2.019-2.49h-14.868c-1.312 0-2.29 1.208-2.019 2.49z" fill="#00c285"/></g><path d="m303.962 209.643c-4.495-20.344-22.625-35.566-44.32-35.566-21.696 0-39.826 15.222-44.32 35.566z" fill="#fedf30"/><path d="m249.864 209.643c3.228-14.607 13.488-26.57 27.052-32.156-5.326-2.193-11.157-3.411-17.274-3.411-21.696 0-39.826 15.223-44.32 35.567z" fill="#fed402"/><path d="m374.126 209.643c-4.495-20.344-22.625-35.566-44.32-35.566-21.696 0-39.825 15.222-44.32 35.566z" fill="#e03d9c"/><path d="m319.917 209.643c3.232-14.626 13.516-26.602 27.107-32.178-5.311-2.179-11.122-3.389-17.218-3.389-21.696 0-39.826 15.223-44.32 35.567z" fill="#c53287"/><path d="m375.979 511c-40.697 0-73.808-33.11-73.808-73.808s33.11-73.809 73.808-73.809c8.782 0 17.379 1.528 25.55 4.544l.346.127.346-.127c3.556-1.312 7.196-2.325 10.894-3.071l.271-1.073v-149.981c0-2.849-2.31-5.159-5.159-5.159h-282.723c-2.849 0-5.159 2.31-5.159 5.159v293.039c0 2.849 2.31 5.159 5.159 5.159h250.475l.252-1z" fill="#ffbd86"/><g><path d="m181.359 506.841v-293.04c0-2.849 2.31-5.159 5.159-5.159h-61.014c-2.849 0-5.159 2.31-5.159 5.159v293.039c0 2.849 2.31 5.159 5.159 5.159h61.014c-2.849.001-5.159-2.309-5.159-5.158z" fill="#f6a96c"/></g><path d="m301.634 445.447h-181.289v61.394c0 2.849 2.31 5.159 5.159 5.159h250.475c-38.524 0-70.234-29.124-74.345-66.553z" fill="#f6a96c"/><g><path d="m181.359 506.841v-61.394h-61.014v61.394c0 2.849 2.31 5.159 5.159 5.159h61.014c-2.849 0-5.159-2.31-5.159-5.159z" fill="#ea9b58"/></g></g><g><g><path d="m375.979 363.384c8.782 0 17.379 1.528 25.55 4.544l.346.127.346-.127c8.171-3.016 16.767-4.544 25.549-4.544 4.043 0 8.006.34 11.874.968 15.796-20.558 11.558-41.531 9.328-48.874-.271-.892-1.517-.919-1.821-.037-8.961 25.994-32.06 40.359-47.467 47.317-15.407-6.958-38.507-21.323-47.467-47.317-.304-.882-1.55-.855-1.821.037-2.257 7.43-6.562 28.812 9.901 49.599 5.056-1.099 10.3-1.693 15.682-1.693z" fill="#07b27b"/><path d="m387.45 364.287c4.797.749 9.506 1.953 14.079 3.641l.346.127.346-.127c4.266-1.574 8.649-2.733 13.113-3.491 10.51-45.618-17.322-64.442-26.181-69.172-.821-.438-1.717.427-1.309 1.264 12.234 25.111 5.664 52.041-.394 67.758z" fill="#0ed290"/></g><g><g><path d="m427.769 362.384c-9.103 0-17.826 1.628-25.895 4.605-8.069-2.977-16.792-4.605-25.895-4.605-41.315 0-74.808 33.493-74.808 74.808s33.492 74.808 74.808 74.808h51.79c41.315 0 74.808-33.493 74.808-74.808s-33.493-74.808-74.808-74.808z" fill="#fb2b3a"/></g></g><g><g><path d="m348.716 437.192c0-33.005 21.383-60.997 51.043-70.931-7.473-2.505-15.465-3.877-23.781-3.877-41.315 0-74.808 33.493-74.808 74.808s33.493 74.808 74.808 74.808h47.545c-41.314 0-74.807-33.493-74.807-74.808z" fill="#e41f2d"/></g></g></g></g></svg>