<svg id="Layer_1" enable-background="new 0 0 512 512" height="512" viewBox="0 0 512 512" width="512" xmlns="http://www.w3.org/2000/svg"><g><path clip-rule="evenodd" d="m119 268.1h333.1v186h-333.1z" fill="#fcb13b" fill-rule="evenodd"/><path clip-rule="evenodd" d="m119 268.1h333.1v77.4c-24.1.9-48.8-10.9-57.1-35.4-16.2 47.3-93.2 47.3-109.4 0-16.2 47.3-93.2 47.3-109.4 0-8.4 24.5-33 36.3-57.1 35.4v-77.4z" fill="#b9872c" fill-rule="evenodd"/><path clip-rule="evenodd" d="m71.4 274.3c18.1 42.2 86.8 42.2 104.9 0zm107.8 0c18.1 42.2 86.8 42.2 104.9 0zm107.8 0c18.1 42.2 86.8 42.2 104.9 0zm107.8 0c18.1 42.2 86.8 42.2 104.9 0z" fill="#b92025" fill-rule="evenodd"/><path clip-rule="evenodd" d="m65.1 454.1h440.9v38.9h-440.9z" fill="#e2a035" fill-rule="evenodd"/><path clip-rule="evenodd" d="m65.1 475.8h440.9v17.2h-440.9z" fill="#b9872c" fill-rule="evenodd"/><path clip-rule="evenodd" d="m119 169.5h333.1v50.1h-333.1z" fill="#ed2024" fill-rule="evenodd"/><path clip-rule="evenodd" d="m299.6 331.2h92.9v72.8h-92.9zm-139.2 0h92.9v122.9h-92.9z" fill="#acacac" fill-rule="evenodd"/><path clip-rule="evenodd" d="m392.5 346.9v57h-77.9v-57zm-217.1 0h77.9v107.1h-77.9z" fill="#eaeaea" fill-rule="evenodd"/><path d="m276.8 106c-2.9 1.6-6.5.7-8.2-2.2-1.6-2.9-.7-6.5 2.2-8.2l47.3-27.6c2.9-1.7 6.5-.7 8.2 2.2s.7 6.5-2.2 8.2zm65.3-27.1c-2.7-1.8-3.5-5.6-1.6-8.3 1.8-2.7 5.5-3.5 8.3-1.6l38 25.4c2.7 1.8 3.5 5.6 1.6 8.3-1.8 2.7-5.6 3.5-8.3 1.6zm69.6 27c-2.9 1.7-6.5.7-8.2-2.2-1.6-2.9-.7-6.5 2.2-8.2l48-27.9c2.8-1.6 6.5-.7 8.2 2.2s.7 6.5-2.2 8.2z" fill="#80311a"/><g clip-rule="evenodd" fill-rule="evenodd"><path d="m299.6 403.9h92.9v24.2h-92.9z" fill="#b9872c"/><path d="m107 149.7h357.1v21h-357.1z" fill="#ed2024"/><path d="m69.9 219.6h431.1v54.7h-431.1z" fill="#e41e26"/><path d="m119 169.5h333.1v20.9h-333.1z" fill="#b92025"/><path d="m24.7 58.9h55.4c4.7 0 8.6 3.9 8.6 8.6v73.2c0 4.7-3.9 8.6-8.6 8.6h-55.4c-10.3 0-18.7-8.4-18.7-18.7v-52.9c0-10.3 8.4-18.8 18.7-18.8z" fill="#b45a35"/><path d="m24.7 58.9h55.4c4.7 0 8.6 3.9 8.6 8.6v49.9h-46c-10.3 0-18.7-8.4-18.7-18.8v-39.7z" fill="#dd6e42"/><path d="m88.7 69.3 76.5-41v75.8 75.8l-76.5-41v-34.8z" fill="#fdb614"/><path d="m165.2 145.5v34.4l-76.5-41v-21.5z" fill="#cd962b"/><path d="m181.4 75.5c10.7 5.1 18 16 18 28.6s-7.4 23.5-18 28.6z" fill="#80311a"/><path d="m66.1 149.3c-22.5 27.3 8.9 60.3-20.4 60.3-7.2 0-15.6 1.1-14.5-7.7l6.7-52.5z" fill="#80311a"/></g><path d="m215.4 109c-2.8 0-5-2.2-5-5s2.2-5 5-5h12.5c2.8 0 5 2.2 5 5 0 2.7-2.2 5-5 5zm-7.4-32.3c-2.3 1.6-5.4 1-6.9-1.2-1.6-2.3-1-5.4 1.2-6.9l12.9-9c2.3-1.6 5.4-1 6.9 1.2 1.6 2.3 1 5.4-1.2 6.9zm-5.7 62.5c-2.3-1.6-2.8-4.7-1.2-7 1.6-2.2 4.7-2.8 6.9-1.2l10.8 7.5c2.3 1.6 2.8 4.7 1.2 6.9-1.6 2.3-4.7 2.8-6.9 1.2z" fill="#fcb13b"/><path clip-rule="evenodd" d="m173.3 19c-4.5 0-8.1 3.6-8.1 8.1v154.1c0 4.5 3.6 8.1 8.1 8.1 4.4 0 8.1-3.6 8.1-8.1v-154.1c0-4.5-3.7-8.1-8.1-8.1z" fill="#dd6e42" fill-rule="evenodd"/><path clip-rule="evenodd" d="m75.5 149.3-2.8 28.1h-15.3v-.1c-.3-9 1.2-18.8 8.8-27.9h9.3z" fill="#cd962b" fill-rule="evenodd"/><path clip-rule="evenodd" d="m260.6 94.4c7.5 0 13.6 6.1 13.6 13.6s-6.1 13.6-13.6 13.6-13.6-6.1-13.6-13.6c0-7.6 6.1-13.6 13.6-13.6z" fill="#fcb13b" fill-rule="evenodd"/><path clip-rule="evenodd" d="m333.8 52.3c7.5 0 13.6 6.1 13.6 13.6s-6.1 13.6-13.6 13.6-13.6-6.1-13.6-13.6 6.1-13.6 13.6-13.6z" fill="#fcb13b" fill-rule="evenodd"/><path clip-rule="evenodd" d="m394.9 94.4c7.5 0 13.6 6.1 13.6 13.6s-6.1 13.6-13.6 13.6-13.6-6.1-13.6-13.6c0-7.6 6.1-13.6 13.6-13.6z" fill="#fcb13b" fill-rule="evenodd"/><path clip-rule="evenodd" d="m470.1 52.3c7.5 0 13.6 6.1 13.6 13.6s-6.1 13.6-13.6 13.6-13.6-6.1-13.6-13.6 6-13.6 13.6-13.6z" fill="#fcb13b" fill-rule="evenodd"/></g></svg>