<svg id="flat" height="512" viewBox="0 0 512 512" width="512" xmlns="http://www.w3.org/2000/svg"><ellipse cx="413.057" cy="188.928" fill="#ffc46b" rx="136.728" ry="64" transform="matrix(.323 -.947 .947 .323 100.961 518.937)"/><path d="m443.923 147.968-30.289-10.325c-8.364-2.851-12.833-11.943-9.982-20.307 2.851-8.364 11.943-12.833 20.307-9.982l30.289 10.325c8.364 2.851 12.833 11.943 9.982 20.307-2.852 8.364-11.943 12.833-20.307 9.982z" fill="#c59753"/><path d="m430.846 211.127-45.433-15.487c-8.364-2.851-12.833-11.943-9.982-20.307 2.851-8.364 11.943-12.833 20.307-9.982l45.433 15.487c8.364 2.851 12.833 11.943 9.982 20.307-2.852 8.364-11.943 12.833-20.307 9.982z" fill="#c59753"/><path d="m232 120v-96h-48v96l-15.001 11.251c-10.701 8.026-16.999 20.621-16.999 33.997v114.752h112v-114.752c0-13.376-6.298-25.972-16.999-33.998z" fill="#953640"/><path d="m184 24h48v48h-48z" fill="#65a4cf"/><path d="m263.491 116.817c15.306 8.835 19.717 29.854 19.717 29.854s-20.407 6.696-35.713-2.139-19.717-29.854-19.717-29.854 20.406-6.695 35.713 2.139z" fill="#64cb96"/><g><path d="m281.683 175.393c-3.608 0-6.882-2.458-7.769-6.119-12.22-50.475 22.606-85.506 24.095-86.973 3.148-3.1 8.213-3.063 11.313.085 3.096 3.143 3.063 8.197-.07 11.299-1.255 1.253-29.828 30.353-19.787 71.823 1.04 4.295-1.599 8.618-5.893 9.658-.633.153-1.266.227-1.889.227z" fill="#9c7742"/></g><path d="m299.368 138.417c-8.5 2.058-15.909 6.27-21.811 11.904-7.825-2.31-16.34-2.667-24.841-.609-25.765 6.238-41.595 32.182-35.357 57.947s41.227 78.953 66.992 72.715c8.5-2.058 15.909-6.27 21.811-11.904 7.825 2.31 16.34 2.667 24.841.609 25.765-6.238 32.55-69.54 26.312-95.305s-32.182-41.595-57.947-35.357z" fill="#f76574"/><path d="m122.279 122.661-79.352 38.043c-13.944 6.685-19.829 23.409-13.144 37.353 4.828 10.071 14.894 15.935 25.366 15.898l35.751 74.571 100.993-48.419-35.751-74.571c6.587-8.142 8.318-19.661 3.489-29.732-6.685-13.944-23.408-19.828-37.352-13.143z" fill="#ffc46b"/><path d="m409.266 488h-306.532c-13.155 0-24.418-9.43-26.73-22.38l-36.004-201.62h432l-36.004 201.62c-2.312 12.95-13.575 22.38-26.73 22.38z" fill="#77c2f5"/><path d="m464 280h-416c-13.255 0-24-10.745-24-24 0-13.255 10.745-24 24-24h416c13.255 0 24 10.745 24 24 0 13.255-10.745 24-24 24z" fill="#5991b6"/><g fill="#4a7997"><path d="m128 456c-8.837 0-16-7.163-16-16v-112c0-8.837 7.163-16 16-16 8.837 0 16 7.163 16 16v112c0 8.837-7.163 16-16 16z"/><path d="m192 456c-8.837 0-16-7.163-16-16v-112c0-8.837 7.163-16 16-16 8.837 0 16 7.163 16 16v112c0 8.837-7.163 16-16 16z"/><path d="m256 456c-8.837 0-16-7.163-16-16v-112c0-8.837 7.163-16 16-16 8.837 0 16 7.163 16 16v112c0 8.837-7.163 16-16 16z"/><path d="m384 456c8.837 0 16-7.163 16-16v-112c0-8.837-7.163-16-16-16-8.837 0-16 7.163-16 16v112c0 8.837 7.163 16 16 16z"/><path d="m320 456c8.837 0 16-7.163 16-16v-112c0-8.837-7.163-16-16-16-8.837 0-16 7.163-16 16v112c0 8.837 7.163 16 16 16z"/></g><path d="m248 240 140-140c6.627-6.627 17.373-6.627 24 0 6.627 6.627 6.627 17.373 0 24l-140 140z" fill="#2f4c5f"/><circle cx="256" cy="256" fill="#4a7997" r="32"/><g><path d="m67.602 192.372c-4.418 0-8.005-3.582-8.005-8s3.577-8 7.995-8h.01c4.418 0 8 3.582 8 8s-3.582 8-8 8z" fill="#9c7742"/></g><g><path d="m96.457 178.538c-4.418 0-8.005-3.582-8.005-8s3.577-8 7.995-8h.01c4.418 0 8 3.582 8 8s-3.582 8-8 8z" fill="#9c7742"/></g><g><path d="m125.312 164.704c-4.418 0-8.005-3.582-8.005-8s3.577-8 7.995-8h.01c4.418 0 8 3.582 8 8s-3.582 8-8 8z" fill="#9c7742"/></g><g><path d="m124.718 200.477c-4.418 0-8.005-3.582-8.005-8s3.577-8 7.995-8h.01c4.418 0 8 3.582 8 8s-3.581 8-8 8z" fill="#9c7742"/></g><g><path d="m95.863 214.311c-4.418 0-8.005-3.582-8.005-8s3.577-8 7.995-8h.01c4.418 0 8 3.582 8 8s-3.581 8-8 8z" fill="#9c7742"/></g></svg>