<svg id="Flat" height="512" viewBox="0 0 512 512" width="512" xmlns="http://www.w3.org/2000/svg"><path d="m160 104h192v48h-192z" fill="#f7b030"/><path d="m424 152h-336a32 32 0 0 0 -32 32v32h400v-32a32 32 0 0 0 -32-32z" fill="#a82a27"/><path d="m88 232h336v224h-336z" fill="#f7b030"/><g fill="#eb423f"><path d="m64 280a32 32 0 0 1 -32-32h64a32 32 0 0 1 -32 32z"/><path d="m192 280a32 32 0 0 1 -32-32h64a32 32 0 0 1 -32 32z"/><path d="m320 280a32 32 0 0 1 -32-32h64a32 32 0 0 1 -32 32z"/><path d="m448 280a32 32 0 0 1 -32-32h64a32 32 0 0 1 -32 32z"/></g><path d="m456 184h-16-24-360l-24 64h384 24 40z" fill="#c7312e"/><path d="m136 312h80v144h-80z" fill="#e9eef2"/><path d="m264 312h112v96h-112z" fill="#3397e8"/><path d="m312 312h16v96h-16z" fill="#e9eef2"/><path d="m264 352h112v16h-112z" fill="#e9eef2"/><circle cx="200" cy="376" fill="#f7b030" r="8"/><path d="m24 456h464v32h-464z" fill="#ad6643"/><path d="m291.226 104.594a48 48 0 1 0 -70.452 0l35.226 79.406z" fill="#eb423f"/><circle cx="256" cy="72" fill="#e9eef2" r="16"/><path d="m224 184v64a32 32 0 0 0 64 0v-64z" fill="#dadcde"/><path d="m224 184h64v64h-64z" fill="#d0d2d4"/><path d="m96 184v64a32 32 0 0 0 64 0v-64z" fill="#dadcde"/><path d="m96 184h64v64h-64z" fill="#d0d2d4"/><path d="m352 184v64a32 32 0 0 0 64 0v-64z" fill="#dadcde"/><path d="m352 184h64v64h-64z" fill="#d0d2d4"/></svg>