<svg id="Capa_1" enable-background="new 0 0 512 512" height="512" viewBox="0 0 512 512" width="512" xmlns="http://www.w3.org/2000/svg"><g><path d="m495.484 194.064h-478.968l-9.235 16.516v33.032c0 9.122 7.395 16.516 16.516 16.516l21.283 170.539c1.992 16.602 16.075 29.097 32.797 29.097h363.527l28.61-9.694c2.178-3.769 3.639-8.021 4.187-12.585l21.283-177.355 16.516-16.517v-33.032c0-9.122-7.395-16.517-16.516-16.517zm-404.645 222.968c0 4.561-3.694 8.258-8.258 8.258s-8.258-3.698-8.258-8.258v-107.354c0-4.561 3.694-8.258 8.258-8.258 4.565 0 8.258 3.698 8.258 8.258zm49.548 0c0 4.561-3.694 8.258-8.258 8.258s-8.258-3.698-8.258-8.258v-107.354c0-4.561 3.693-8.258 8.258-8.258s8.258 3.698 8.258 8.258zm49.549 0c0 4.561-3.694 8.258-8.258 8.258-4.565 0-8.258-3.698-8.258-8.258v-107.354c0-4.561 3.693-8.258 8.258-8.258 4.564 0 8.258 3.698 8.258 8.258zm49.548 0c0 4.561-3.694 8.258-8.258 8.258s-8.258-3.698-8.258-8.258v-107.354c0-4.561 3.694-8.258 8.258-8.258s8.258 3.698 8.258 8.258zm49.548 0c0 4.561-3.693 8.258-8.258 8.258-4.564 0-8.258-3.698-8.258-8.258v-107.354c0-4.561 3.694-8.258 8.258-8.258 4.565 0 8.258 3.698 8.258 8.258zm49.549 0c0 4.561-3.694 8.258-8.258 8.258s-8.258-3.698-8.258-8.258v-107.354c0-4.561 3.694-8.258 8.258-8.258 4.565 0 8.258 3.698 8.258 8.258zm49.548 0c0 4.561-3.693 8.258-8.258 8.258s-8.258-3.698-8.258-8.258v-107.354c0-4.561 3.693-8.258 8.258-8.258s8.258 3.698 8.258 8.258zm49.548 0c0 4.561-3.694 8.258-8.258 8.258-4.565 0-8.258-3.698-8.258-8.258v-107.354c0-4.561 3.693-8.258 8.258-8.258 4.564 0 8.258 3.698 8.258 8.258z" fill="#98db7c"/><path d="m41.29 243.613c-13.682 0-24.774-11.092-24.774-24.774v-24.774c-9.121 0-16.516 7.394-16.516 16.516v33.032c0 9.121 7.395 16.516 16.516 16.516l21.283 177.355c1.992 16.602 16.076 29.097 32.797 29.097h370.808c12.106 0 22.857-6.6 28.61-16.516h-399.417c-8.355 0-15.403-6.254-16.403-14.548l-17.724-147.66c-1.77-14.747 9.745-27.727 24.598-27.727h434.417c9.121 0 16.516-7.395 16.516-16.516h-470.711z" fill="#77cc7d"/><path d="m350.603 210.341-86.346-143.917c-2.347-3.911-1.078-8.983 2.832-11.33l14.162-8.497c3.911-2.347 8.983-1.078 11.33 2.832l86.346 143.917c2.347 3.911 1.078 8.983-2.832 11.33l-14.162 8.497c-3.911 2.347-8.983 1.079-11.33-2.832z" fill="#736572"/><path d="m251.99 59.342-14.16-8.496c-3.911-2.346-8.983-1.078-11.33 2.833l-86.35 143.914c-2.346 3.911-1.078 8.984 2.833 11.33l14.16 8.496c3.911 2.347 8.983 1.079 11.33-2.833l86.349-143.915c2.347-3.91 1.078-8.982-2.832-11.329z" fill="#736572"/><g fill="#615260"><path d="m359.107 224.503 21.241-12.744c3.91-2.346 5.178-7.418 2.831-11.328l-4.252-7.084c-11.732 7.037-26.947 3.233-33.986-8.499l-77.851-129.754-7.079 4.247c-3.911 2.347-5.179 7.419-2.833 11.33l90.599 150.998c2.347 3.912 7.419 5.181 11.33 2.834z"/><path d="m159.977 180.604 77.852-129.758-7.081-4.248c-3.911-2.347-8.983-1.078-11.33 2.832l-90.599 150.999c-2.347 3.911-1.078 8.984 2.833 11.33l21.241 12.745c3.911 2.346 8.983 1.078 11.33-2.833l4.25-7.084c-11.731-7.039-15.534-22.253-8.496-33.983z"/></g></g></svg>