<svg id="Layer_1" enable-background="new 0 0 74 74" height="512" viewBox="0 0 74 74" width="512" xmlns="http://www.w3.org/2000/svg"><g><g><path d="m53.24 37.68c0 4.33-3.88 7.85-8.66 7.85-4.79 0-8.67-3.52-8.67-7.85 0-4.34 3.88-7.86 8.67-7.86 4.79.01 8.66 3.52 8.66 7.86z" fill="#f25a5a"/><path d="m52.51 37.68c0 3.96-3.55 7.19-7.93 7.19-2.49 0-4.72-1.05-6.17-2.68 1.38 1.06 3.16 1.69 5.11 1.69 4.38 0 7.93-3.22 7.93-7.18 0-1.72-.67-3.3-1.78-4.54 1.73 1.32 2.84 3.31 2.84 5.52z" opacity=".1"/><path d="m52.44 34.38c-.78.47-1.49 1.13-1.86 1.96-.43.96-.42 2.15-1.16 2.9-1.12 1.14-3.28.6-4.36 1.78-.46.49-.61 1.21-1.09 1.69-.44.45-1.09.62-1.73.65-.63.03-1.26-.05-1.89-.03-.48.02-.98.11-1.39.33-1.87-1.44-3.06-3.59-3.06-5.98 0-4.34 3.88-7.86 8.67-7.86 3.49.01 6.5 1.87 7.87 4.56z" fill="#fff" opacity=".1"/><path d="m49.95 31.52c-1.14.59-2.34 1.06-3.57 1.41-1.2.34-2.52.61-3.38 1.52-.72.77-.99 1.86-1.65 2.68-.89 1.13-2.34 1.59-3.66 2.14-.47.2-.96.42-1.4.71-.25-.72-.38-1.49-.38-2.29 0-4.34 3.88-7.86 8.67-7.86 2.03 0 3.89.63 5.37 1.69z" fill="#fff" opacity=".1"/><g fill="#9c3"><path d="m44.32 29.8c-.41-.27-.84-.54-1.33-.58-.53-.04-1.04.2-1.57.31-.75.15-1.56 0-2.2-.41.24.73.76 1.32 1.45 1.67s1.51.43 2.25.2c-.02.56-.39 1.02-.73 1.47-.34.44-.67.97-.57 1.52.07-.13.19-.18.34-.19s.3.02.44.03c.53.06 1.07-.07 1.52-.36s.79-.73.95-1.24c.09.47.46.8.88 1.03s.89.38 1.3.63.77.65.8 1.13c.25-.54.4-1.16.28-1.74s-.44-1.12-.89-1.52c1.34.19 2.71-.47 3.5-1.56-.55.36-1.31.17-1.92-.06s-1.16-.6-1.76-.86-1.31-.39-1.9-.12z"/><path d="m43.53 26.94c.27 1.16.58 2.31.92 3.46l1.09.15c-.38-1.27-.72-2.55-1.01-3.84-.05-.21-.22-.36-.43-.39-.35-.05-.65.27-.57.62z"/></g></g><g><g><path d="m24.47 32.45c.53-.77 1.06-1.55 1.4-2.42.16-.4.27-.83.22-1.26s-.3-.85-.7-1.01-.93.02-1.07.42c-.05.16-.04.34.05.48.1.13.29.2.44.12.12-.06.18-.19.19-.32s-.05-.26-.12-.36c.24.11.5.26.57.52.05.19-.03.4-.16.54-.26.28-.71.35-1.06.18-.34-.17-.56-.54-.59-.93-.02-.38.14-.76.41-1.04.44-.46 1.15-.62 1.75-.42s1.06.75 1.17 1.38c.08.47-.03.96-.15 1.42s-.27.94-.25 1.42.23.99.65 1.22z" fill="#9c3"/><g><path d="m28.62 30.44c-.31 0-.63-.16-.81-.43-.21-.31-.22-.68-.19-.94.01-.09.03-.17.05-.25-.4.08-.77.3-1.02.62-.05.06-.14.07-.2.03-.06-.05-.07-.14-.03-.2.32-.42.83-.68 1.35-.75.08-.18.19-.33.32-.45.22-.2.52-.33.87-.38.32-.04.64 0 .91.04.15.02.31.05.46.1.12-.07.25-.12.4-.14.32-.06.68-.02 1.07.12.07.03.11.11.08.18s-.11.11-.18.08c-.34-.12-.65-.16-.92-.11-.03.01-.05.01-.08.02.09.05.17.11.24.17.31.29.44.83.14 1.17-.12.13-.29.21-.48.22-.2.01-.41-.06-.56-.19-.27-.24-.35-.67-.2-1.02.05-.11.12-.21.2-.3-.07-.01-.15-.03-.22-.04-.25-.04-.55-.07-.84-.04-.2.03-.49.1-.72.3-.07.06-.13.14-.19.23.22.01.44.05.65.14.4.16.68.46.74.79.08.41-.19.84-.6.97-.07.04-.15.06-.24.06zm-.66-1.66c-.03.1-.06.21-.07.32-.02.21-.02.52.14.75.17.24.49.36.76.28.27-.09.46-.38.41-.65-.04-.24-.26-.46-.57-.58-.21-.09-.44-.13-.67-.12zm2.41-.66c-.12.09-.21.2-.27.32-.1.24-.05.54.13.7.09.08.22.12.35.12.12-.01.22-.05.29-.13.19-.21.09-.58-.12-.78-.11-.1-.24-.17-.38-.23z" fill="#9c3"/></g><path d="m33.76 40.56c-.31 1.03-.84 2.04-1.71 2.65s-2.14.72-2.97.04c-.44.4-.99.63-1.57.68-.58.04-1.22-.12-1.71-.45-.48.33-1.12.49-1.71.45-.58-.04-1.14-.28-1.57-.68-.83.67-2.09.57-2.97-.04-.87-.61-1.41-1.62-1.71-2.65-.58-1.91-.48-4.06.48-5.81s2.81-3.01 4.78-3.01c.93-.01 1.85.25 2.71.61.87-.36 1.78-.62 2.72-.61 1.97.01 3.82 1.27 4.78 3.01.92 1.75 1.02 3.91.45 5.81z" fill="#f93"/><g fill="#ef8220"><path d="m27.22 32.15c1 .34 1.84 1.12 2.41 2.03.58.92.89 1.98 1.05 3.03.14 1.05.19 2.12.02 3.18-.09.53-.23 1.05-.46 1.54-.23.48-.54.93-.94 1.28.55-.9.76-1.89.82-2.88.02-.5.02-1-.02-1.5-.03-.5-.08-1.01-.16-1.51-.14-.99-.39-1.97-.81-2.86-.45-.88-1.06-1.69-1.91-2.31z"/><path d="m24.36 32.15c-.85.61-1.46 1.43-1.9 2.32-.43.89-.68 1.86-.81 2.86-.08.5-.13 1-.16 1.51-.04.5-.04 1-.02 1.5.06 1 .27 1.99.82 2.88-.4-.34-.71-.79-.94-1.28s-.37-1.01-.46-1.54c-.18-1.06-.12-2.13.02-3.18.16-1.05.47-2.11 1.05-3.03.56-.92 1.4-1.7 2.4-2.04z"/><path d="m25.78 32.33c-.05.93-.12 1.83-.16 2.73s-.06 1.8-.05 2.7c0 .9.04 1.8.08 2.71s.1 1.81.13 2.74c-.33-.87-.56-1.77-.71-2.68-.16-.91-.23-1.84-.25-2.77 0-.93.06-1.86.22-2.77.15-.9.38-1.8.74-2.66z"/></g></g><path d="m33.28 34.76c-.95-1.74-2.81-3-4.77-3.01-.56-.01-1.11.09-1.66.25-.15-.24-.25-.53-.25-.82-.02-.48.12-.95.25-1.42.06-.21.11-.44.14-.66.2-.14.44-.25.68-.29-.02.08-.04.16-.04.25-.03.26-.02.63.19.94.18.27.5.43.81.43.09 0 .18-.01.27-.04.4-.13.68-.57.6-.97-.06-.34-.34-.63-.74-.79-.21-.09-.43-.13-.65-.14.05-.09.11-.16.18-.23.22-.21.51-.28.71-.31.29-.03.59 0 .84.04.07.01.15.03.22.04-.08.09-.15.19-.2.3-.15.35-.07.78.2 1.02.15.13.35.2.56.19.19-.01.36-.09.48-.23.3-.34.18-.88-.14-1.17-.07-.07-.15-.13-.24-.18.03-.01.05-.01.08-.02.27-.05.58-.01.92.11.08.03.16-.01.18-.08.03-.08-.01-.16-.08-.18-.39-.14-.75-.18-1.07-.12-.14.03-.27.08-.4.14-.15-.04-.31-.07-.46-.09-.27-.04-.59-.08-.91-.04-.35.04-.65.18-.87.38-.13.12-.24.27-.32.45-.26.03-.51.11-.74.24 0-.14-.01-.28-.03-.42-.11-.62-.58-1.18-1.17-1.38-.6-.2-1.31-.03-1.75.42-.27.28-.43.66-.4 1.04.02.38.24.75.58.92s.8.11 1.06-.18c.13-.15.21-.35.16-.54-.07-.25-.33-.4-.57-.52.07.11.12.23.11.36 0 .13-.07.26-.18.32-.15.08-.35.01-.44-.12-.09-.14-.11-.32-.06-.47.15-.41.68-.59 1.07-.42.4.16.64.58.7 1.01.05.42-.06.85-.22 1.26-.28.7-.68 1.35-1.1 1.97-.56-.16-1.13-.27-1.7-.26-1.97.01-3.83 1.26-4.78 3.01-.95 1.74-1.06 3.9-.47 5.81.28.94.75 1.87 1.5 2.48.3-.32.66-.58 1.05-.77.87-.42 1.85-.54 2.82-.52.78.02 1.62.13 2.33-.23.97-.5 1.43-1.78 2.47-2.08.8-.24 1.71.18 2.49-.13.46-.18.79-.59 1.02-1.02.23-.44.37-.91.59-1.35.33-.68.82-1.26 1.42-1.71-.1-.16-.19-.32-.27-.47zm-3.18-6.31c.06-.13.15-.23.27-.32.14.05.27.12.38.23.21.19.3.57.12.78-.07.08-.17.12-.29.13-.13.01-.26-.03-.35-.11-.18-.18-.23-.47-.13-.71zm-2.21.65c.01-.11.04-.22.07-.32.23-.01.46.03.67.12.32.13.52.35.57.58.05.27-.13.57-.4.65s-.59-.04-.76-.28c-.16-.24-.17-.54-.15-.75z" fill="#fff" opacity=".1"/><path d="m31.8 27.8c-.39-.14-.75-.18-1.07-.12-.14.03-.27.08-.4.14-.15-.04-.31-.07-.46-.09-.27-.04-.59-.08-.91-.04-.35.04-.65.18-.87.38-.13.12-.24.27-.32.45-.26.03-.51.11-.74.24 0-.14-.01-.28-.03-.42-.11-.62-.58-1.18-1.17-1.38-.6-.2-1.31-.03-1.75.42-.27.28-.43.66-.4 1.04.02.38.24.75.58.92s.8.11 1.06-.18c.13-.15.21-.35.16-.54-.07-.25-.33-.4-.57-.52.07.11.12.23.11.36 0 .13-.07.26-.18.32-.15.08-.35.01-.44-.12-.09-.14-.11-.32-.06-.47.15-.41.68-.59 1.07-.42.4.16.64.58.7 1.01.05.42-.06.85-.22 1.26-.28.7-.68 1.35-1.1 1.97-.56-.16-1.13-.27-1.7-.26-1.97.01-3.83 1.26-4.78 3.01-.95 1.74-1.06 3.9-.47 5.81.02.07.04.14.07.21.29-.01.58-.04.87-.11 1.32-.3 2.49-1.16 3.17-2.32.25-.43.47-.93.94-1.13.6-.25 1.3.17 1.93.03.42-.09.75-.42.99-.78.23-.35.4-.76.63-1.12.9-1.42 2.66-1.99 4.27-2.44.24-.07.49-.14.73-.21-.87-.59-1.88-.95-2.92-.95-.56-.01-1.11.09-1.66.25-.15-.24-.25-.53-.25-.82-.02-.48.12-.95.25-1.42.06-.21.11-.44.14-.66.2-.14.44-.25.68-.29-.02.08-.04.16-.04.25-.03.26-.02.63.19.94.18.27.5.43.81.43.09 0 .18-.01.27-.04.4-.13.68-.57.6-.97-.06-.34-.34-.63-.74-.79-.21-.09-.43-.13-.65-.14.05-.09.11-.16.18-.23.22-.21.51-.28.71-.31.29-.03.59 0 .84.04.07.01.15.03.22.04-.08.09-.15.19-.2.3-.15.35-.07.78.2 1.02.15.13.35.2.56.19.19-.01.36-.09.48-.23.3-.34.18-.88-.14-1.17-.07-.07-.15-.13-.24-.18.03-.01.05-.01.08-.02.27-.05.58-.01.92.11.08.03.16-.01.18-.08-.01-.07-.05-.15-.11-.17zm-3.17 1.1c.32.13.52.35.57.58.05.27-.13.57-.4.65s-.59-.04-.76-.28c-.16-.24-.17-.54-.15-.75.01-.11.04-.22.07-.32.23-.01.46.03.67.12zm2.12-.55c.21.19.3.57.12.78-.07.08-.17.12-.29.13-.13.01-.26-.03-.35-.11-.18-.16-.23-.46-.13-.7.06-.13.15-.23.27-.32.14.04.27.11.38.22z" fill="#fff" opacity=".1"/><path d="m33.15 40.38c-.23.74-.66 1.74-1.47 2.31-.35.25-.8.39-1.23.39-.27 0-.65-.06-.97-.32l-.42-.34-.4.37c-.32.3-.75.48-1.2.51-.04.01-.09.01-.13.01-.42 0-.85-.13-1.18-.35l-.35-.24-.35.24c-.32.22-.76.35-1.17.35-.05 0-.09 0-.14-.01-.44-.03-.87-.21-1.19-.51l-.4-.37-.42.34c-.32.27-.71.32-.97.32-.43 0-.88-.15-1.23-.39-.37-.26-.66-.61-.89-.98.08.08.16.15.26.21.36.25.81.39 1.23.39.27 0 .65-.06.97-.32l.42-.34.4.37c.32.3.75.48 1.2.51.04.01.09.01.13.01.42 0 .85-.13 1.17-.35l.35-.24.36.24c.32.22.76.35 1.18.35.04 0 .09 0 .13-.01.44-.03.87-.21 1.19-.51l.4-.37.42.35c.32.27.7.32.97.32.43 0 .88-.15 1.24-.39.81-.57 1.25-1.57 1.47-2.31.56-1.86.41-3.8-.42-5.32-.08-.15-.17-.29-.27-.43.35.35.65.75.9 1.2.82 1.51.98 3.45.41 5.31z" opacity=".1"/></g><g><path d="m66.2 45.53v18.78c0 1.21-.98 2.18-2.18 2.18h-54.04c-1.21 0-2.18-.98-2.18-2.18v-18.78z" fill="#c63"/><g fill="#b75125"><path d="m13.36 45.53h1.11v20.96h-1.11z"/><path d="m19.96 45.53h1.11v20.96h-1.11z"/><path d="m26.55 45.53h1.11v20.96h-1.11z"/><path d="m33.15 45.53h1.11v20.96h-1.11z"/><path d="m39.74 45.53h1.11v20.96h-1.11z"/><path d="m46.34 45.53h1.11v20.96h-1.11z"/><path d="m52.94 45.53h1.11v20.96h-1.11z"/><path d="m59.53 45.53h1.11v20.96h-1.11z"/></g><path d="m7.8 45.53v1.75h45.38c5.71 0 10.33 4.63 10.33 10.33v8.88h.51c1.21 0 2.18-.98 2.18-2.18v-18.78z" opacity=".1"/><g fill="#333"><path d="m11.34 20.58h3.89v23.34h-3.89z"/><path d="m58.77 20.58h3.89v23.34h-3.89z"/></g><path d="m68.4 43.92c0-.89-.72-1.61-1.61-1.61h-59.57c-.89 0-1.61.72-1.61 1.61 0 .89.72 1.61 1.61 1.61h59.56c.89 0 1.62-.72 1.62-1.61z" fill="#c63"/><g fill="#333"><path d="m13.21 66.5h5.23v2.5h-5.23z"/><path d="m55.56 66.5h5.23v2.5h-5.23z"/></g><g><path d="m15.77 14.95v4.51c0 2.34-1.9 4.25-4.25 4.25-2.34 0-4.25-1.9-4.25-4.25v-4.51z" fill="#f25a5a"/><path d="m24.26 14.95v4.51c0 2.34-1.9 4.25-4.25 4.25-2.34 0-4.25-1.9-4.25-4.25v-4.51z" fill="#ffcf47"/><path d="m32.75 14.95v4.51c0 2.34-1.9 4.25-4.25 4.25-2.34 0-4.25-1.9-4.25-4.25v-4.51z" fill="#f25a5a"/><path d="m41.25 14.95v4.51c0 2.34-1.9 4.25-4.25 4.25-2.34 0-4.25-1.9-4.25-4.25v-4.51z" fill="#ffcf47"/><path d="m49.74 14.95v4.51c0 2.34-1.9 4.25-4.25 4.25-2.34 0-4.25-1.9-4.25-4.25v-4.51z" fill="#f25a5a"/><path d="m58.23 14.95v4.51c0 2.34-1.9 4.25-4.25 4.25-2.34 0-4.25-1.9-4.25-4.25v-4.51z" fill="#ffcf47"/><path d="m66.72 14.95v4.51c0 2.34-1.9 4.25-4.25 4.25-2.34 0-4.25-1.9-4.25-4.25v-4.51z" fill="#f25a5a"/></g><g><path d="m15.77 14.95 2.9-7.12h-7.33l-4.06 7.12z" fill="#f97373"/><path d="m24.26 14.95 1.74-7.12h-7.33l-2.9 7.12z" fill="#ffd773"/><path d="m32.75 14.95.58-7.12h-7.33l-1.74 7.12z" fill="#f97373"/><path d="m41.25 14.95-.58-7.12h-7.34l-.58 7.12z" fill="#ffd773"/><path d="m49.74 14.95-1.74-7.12h-7.33l.58 7.12z" fill="#f97373"/><path d="m58.23 14.95-2.9-7.12h-7.33l1.74 7.12z" fill="#ffd773"/><path d="m66.72 14.95-4.06-7.12h-7.33l2.9 7.12z" fill="#f97373"/></g><path d="m64.65 6.42c0 .78-.63 1.41-1.41 1.41h-52.47c-.78 0-1.41-.63-1.41-1.41 0-.79.63-1.42 1.41-1.42h52.46c.78 0 1.42.63 1.42 1.42z" fill="#333"/></g><g fill="#fff"><path d="m62.67 7.83h.57c.78 0 1.41-.63 1.41-1.41s-.63-1.42-1.41-1.42h-52.46c-.78 0-1.42.64-1.42 1.42s.64 1.41 1.42 1.41h.56l-4.05 7.13v4.51c0 2.28 1.8 4.12 4.05 4.23v18.61h-4.12c-.89 0-1.61.72-1.61 1.61s.72 1.62 1.61 1.62h.58v18.78c0 1.2.98 2.18 2.18 2.18h1.72c.38-.16.76-.36 1.12-.58 1.97-1.21 3.41-3.1 5.21-4.55 3.59-2.9 8.37-3.85 12.98-4.04s9.25.27 13.83-.23c4.59-.5 9.3-2.14 12.24-5.69 3.15-3.8 3.73-9.07 5.59-13.64v-14.07c2.25-.11 4.05-1.95 4.05-4.23v-4.51zm-3.9 34.48h-43.53v-20.81c.33-.6.54-1.29.54-2.03 0 2.34 1.9 4.24 4.24 4.24 2.35 0 4.25-1.9 4.25-4.24 0 2.34 1.9 4.24 4.24 4.24 2.35 0 4.25-1.9 4.25-4.24 0 2.34 1.9 4.24 4.24 4.24 2.35 0 4.25-1.9 4.25-4.24 0 2.34 1.9 4.24 4.24 4.24 2.35 0 4.25-1.9 4.25-4.24 0 2.34 1.9 4.24 4.25 4.24 2.34 0 4.24-1.9 4.24-4.24 0 .74.21 1.43.54 2.03z" opacity=".1"/><path d="m13.21 66.5h5.23v2.5h-5.23z" opacity=".1"/><path d="m55.56 66.5h5.23v2.5h-5.23z" opacity=".1"/><path d="m10.78 5c-.78 0-1.42.64-1.42 1.42s.64 1.41 1.42 1.41h.56l-4.05 7.13v4.51c0 2.28 1.8 4.12 4.05 4.23v18.61h-4.12c-.89 0-1.61.72-1.61 1.61s.72 1.62 1.61 1.62h.58v5.45c4.74-.52 9.5-3 11.49-7.32.2-.44.37-.9.52-1.36h-4.57v-20.81c.33-.6.54-1.29.54-2.03 0 2.34 1.9 4.24 4.24 4.24 2.35 0 4.25-1.9 4.25-4.24 0 2.34 1.9 4.24 4.24 4.24 2.35 0 4.25-1.9 4.25-4.24 0 2.34 1.9 4.24 4.24 4.24 2.35 0 4.25-1.9 4.25-4.24 0 1.35.63 2.56 1.62 3.33 1.88-2.94 3.27-6.32 5.4-9.11 3.12-4.08 7.75-6.79 12.61-8.44.25-.09.51-.17.76-.25z" opacity=".1"/><path d="m13.21 66.5h5.23v2.5h-5.23z" opacity=".1"/><path d="m55.56 66.5h5.23v2.5h-5.23z" opacity=".1"/></g></g></svg>