<svg id="Capa_1" enable-background="new 0 0 512 512" height="512" viewBox="0 0 512 512" width="512" xmlns="http://www.w3.org/2000/svg"><g><path d="m291.885 107.993-28.802-28.561c-2.506-2.485-3.915-5.867-3.915-9.396v-10.826l-29.377-10-29.377 10v10.825c0 3.529-1.41 6.912-3.915 9.396l-28.802 28.561c-3.41 3.381-5.328 7.984-5.328 12.786v175.999h134.844v-175.999c0-4.802-1.918-9.404-5.328-12.785z" fill="#8d9ca8"/><path d="m291.885 107.993-28.802-28.561c-2.506-2.485-3.915-5.867-3.915-9.396v-10.826l-26.785-18.31v35.317c0 3.529 1.409 6.911 3.915 9.396l28.802 28.561c3.41 3.381 5.328 7.984 5.328 12.786v169.818h26.785v-176c0-4.802-1.918-9.404-5.328-12.785z" fill="#7a8c98"/><path d="m259.168 59.21v-50.418c0-4.856-3.936-8.792-8.792-8.792h-41.17c-4.856 0-8.792 3.936-8.792 8.792v50.418z" fill="#fd8087"/><path d="m232.383 8.792v50.418h26.785v-50.418c0-4.856-3.936-8.792-8.792-8.792h-26.785c4.856 0 8.792 3.936 8.792 8.792z" fill="#fe646f"/><path d="m51.553 158.254 26.032-11.369c3.787-41.544-13.247-82.168-45.301-108.587-1.954-1.61-4.654-1.978-6.974-.965l-15.599 6.812c-3.026 1.321-3.617 5.336-1.121 7.497 30.541 26.443 46.657 66.09 42.963 106.612z" fill="#68ca44"/><path d="m112.179 158.254-26.032-11.369c-3.787-41.544 13.247-82.168 45.301-108.587 1.954-1.61 4.654-1.978 6.974-.965l15.598 6.812c3.026 1.321 3.617 5.336 1.121 7.497-30.541 26.443-46.656 66.09-42.962 106.612z" fill="#68ca44"/><path d="m67.662 134.854h28.406v-114.217c0-3.921-3.179-7.1-7.1-7.1h-14.205c-3.921 0-7.1 3.179-7.1 7.1v114.217z" fill="#97da7b"/><path d="m81.866 326.227c21.639 0 49.792-130.938 49.792-183.15 0-27.17-22.622-49.196-49.792-49.196s-49.792 22.026-49.792 49.196c0 52.212 28.153 183.15 49.792 183.15z" fill="#fe9738"/><path d="m10.399 144.473v307.673c0 5.425 4.398 9.823 9.823 9.823h294.917c5.425 0 9.823-4.398 9.823-9.823v-307.673c0-5.425-4.398-9.823-9.823-9.823h-294.917c-5.425.001-9.823 4.398-9.823 9.823z" fill="#e19974"/><path d="m315.139 134.651h-27.815c5.425 0 9.823 4.398 9.823 9.823v307.673c0 5.425-4.398 9.823-9.823 9.823h27.815c5.425 0 9.823-4.398 9.823-9.823v-307.674c0-5.424-4.398-9.822-9.823-9.822z" fill="#dc8758"/><path d="m167.681 292.259c-40.161 0-72.836-32.674-72.836-72.836v-50.014c0-4.267 3.459-7.726 7.726-7.726s7.726 3.459 7.726 7.726v50.014c0 31.641 25.742 57.383 57.383 57.383s57.383-25.742 57.383-57.383v-50.014c0-4.267 3.459-7.726 7.726-7.726s7.726 3.459 7.726 7.726v50.014c.001 40.162-32.673 72.836-72.834 72.836z" fill="#fef1da"/><path d="m281.88 252.67v238.495c0 11.507 9.328 20.835 20.835 20.835h181.419c11.507 0 20.835-9.328 20.835-20.835v-238.495l-113.81-20.604z" fill="#fef1da"/><path d="m477.154 252.67v238.495c0 11.507-9.328 20.835-20.835 20.835h27.815c11.507 0 20.835-9.328 20.835-20.835v-238.495z" fill="#fae2c0"/><path d="m281.88 252.67v-39.086c0-5.754 4.664-10.418 10.418-10.418h202.254c5.754 0 10.418 4.664 10.418 10.418v39.086z" fill="#fd8087"/><path d="m494.551 203.166h-27.815c5.754 0 10.418 4.664 10.418 10.418v39.086h27.815v-39.086c0-5.753-4.664-10.418-10.418-10.418z" fill="#fe646f"/><path d="m341.623 292.283c-8.236 0-14.912 6.676-14.912 14.912 0 8.235 6.676 14.911 14.912 14.911 8.235 0 14.912-6.676 14.912-14.911 0-8.236-6.677-14.912-14.912-14.912z" fill="#97da7b"/><path d="m408.049 306.702h-19.909c-4.267 0-7.726-3.459-7.726-7.726s3.459-7.726 7.726-7.726h19.908c4.267 0 7.726 3.459 7.726 7.726.001 4.267-3.458 7.726-7.725 7.726z" fill="#8d9ca8"/><path d="m460.137 335.569h-71.997c-4.267 0-7.726-3.459-7.726-7.726s3.459-7.726 7.726-7.726h71.997c4.267 0 7.726 3.459 7.726 7.726.001 4.267-3.459 7.726-7.726 7.726z" fill="#8d9ca8"/><path d="m341.623 364.555c-8.236 0-14.912 6.676-14.912 14.912 0 8.235 6.676 14.912 14.912 14.912 8.235 0 14.912-6.676 14.912-14.912s-6.677-14.912-14.912-14.912z" fill="#97da7b"/><path d="m408.049 378.974h-19.909c-4.267 0-7.726-3.459-7.726-7.726s3.459-7.726 7.726-7.726h19.908c4.267 0 7.726 3.459 7.726 7.726.001 4.267-3.458 7.726-7.725 7.726z" fill="#8d9ca8"/><path d="m460.137 407.842h-71.997c-4.267 0-7.726-3.459-7.726-7.726s3.459-7.726 7.726-7.726h71.997c4.267 0 7.726 3.459 7.726 7.726.001 4.266-3.459 7.726-7.726 7.726z" fill="#8d9ca8"/><path d="m341.623 436.827c-8.236 0-14.912 6.676-14.912 14.912s6.676 14.912 14.912 14.912c8.235 0 14.912-6.676 14.912-14.912s-6.677-14.912-14.912-14.912z" fill="#97da7b"/><g fill="#8d9ca8"><path d="m408.049 451.246h-19.909c-4.267 0-7.726-3.459-7.726-7.726s3.459-7.726 7.726-7.726h19.908c4.267 0 7.726 3.459 7.726 7.726.001 4.267-3.458 7.726-7.725 7.726z"/><path d="m460.137 480.113h-71.997c-4.267 0-7.726-3.459-7.726-7.726s3.459-7.726 7.726-7.726h71.997c4.267 0 7.726 3.459 7.726 7.726.001 4.267-3.459 7.726-7.726 7.726z"/></g></g></svg>