<svg id="Capa_1" enable-background="new 0 0 512 512" height="512" viewBox="0 0 512 512" width="512" xmlns="http://www.w3.org/2000/svg"><g><path d="m76.48 102.063h63.667c3.671 0 6.058-3.863 4.417-7.146l-19.994-39.986h-32.513l-19.993 39.985c-1.642 3.284.745 7.147 4.416 7.147z" fill="#9ec8fc"/><path d="m231.135 406.132 21.831 62.462h-100.248l21.831-62.462z" fill="#ddebfd"/><path d="m239.893 431.189-8.758-25.057h-56.586l-8.758 25.057z" fill="#bed9fd"/><path d="m370.658 406.132c19.313 0 35.026-15.713 35.026-35.026v-240.07c0-19.313-15.713-35.026-35.026-35.026h-335.632c-19.313-.001-35.026 15.712-35.026 35.025v240.07c0 19.313 15.713 35.026 35.026 35.026h335.632z" fill="#4980ac"/><path d="m375.809 131.036v240.07c0 2.845-2.306 5.151-5.151 5.151h-335.632c-2.845 0-5.151-2.306-5.151-5.151v-240.07c0-2.845 2.306-5.151 5.151-5.151h335.632c2.845 0 5.151 2.306 5.151 5.151z" fill="#80b6fc"/><path d="m202.842 251.07h-172.967v120.035c0 2.845 2.306 5.151 5.151 5.151h167.816z" fill="#9ec8fc"/><path d="m202.842 125.885h-167.816c-2.845 0-5.151 2.306-5.151 5.151v120.034h172.967z" fill="#ddebfd"/><path d="m150.948 364.502v11.754h-58.877v-11.754c0-13.878 11.25-25.129 25.129-25.129h8.62c13.878.001 25.128 11.251 25.128 25.129z" fill="#edf6ff"/><path d="m121.51 347.1c-4.267 0-7.726-3.459-7.726-7.726v-18.752c0-4.267 3.459-7.726 7.726-7.726s7.726 3.459 7.726 7.726v18.752c0 4.267-3.459 7.726-7.726 7.726z" fill="#ebae9d"/><path d="m150.948 239.316v11.754h-58.877v-11.754c0-13.878 11.25-25.129 25.129-25.129h8.62c13.878.001 25.128 11.251 25.128 25.129z" fill="#e27c48"/><path d="m121.51 221.914c-4.267 0-7.726-3.459-7.726-7.726v-18.752c0-4.267 3.459-7.726 7.726-7.726s7.726 3.459 7.726 7.726v18.752c0 4.267-3.459 7.726-7.726 7.726z" fill="#e09380"/><path d="m145.091 25.738v12.98c0 11.948-9.686 21.634-21.634 21.634h-30.287c-11.948 0-21.634-9.686-21.634-21.634v-12.98c0-11.948 9.686-21.634 21.634-21.634h30.288c11.948 0 21.633 9.686 21.633 21.634z" fill="#4980ac"/><path d="m108.314 39.955h-1.082c-4.267 0-7.726-3.459-7.726-7.726s3.459-7.726 7.726-7.726h1.082c4.267 0 7.726 3.459 7.726 7.726s-3.459 7.726-7.726 7.726z" fill="#9ec8fc"/><path d="m349.611 104.319h93.338v201.001h-77.252v-58.214h-34.278c-21.717 0-39.322-17.066-39.322-38.117v-104.67z" fill="#ffcdbe"/><path d="m280.639 63.088h2.847c-2.924-5.697-4.393-12.219-3.906-19.116 1.276-18.067 16.183-32.818 34.795-34.386 7.31-.616 14.233.766 20.265 3.64 4.123 1.964 8.984 1.359 12.616-1.368 6.474-4.86 14.597-7.753 23.419-7.753 12.456 0 23.519 5.766 30.511 14.693 3.87 4.94 10.903 6.153 16.225 2.709 6.074-3.931 13.371-6.224 21.223-6.224 16.288 0 30.196 9.858 35.735 23.753.647 1.622 2.029 2.813 3.73 3.204 16.88 3.877 29.44 18.578 29.44 36.127 0 8.487-2.939 16.308-7.883 22.562-3.281 4.15-3.281 10.06 0 14.21 4.944 6.253 7.883 14.074 7.883 22.562 0 11.738-5.625 22.197-14.397 29.001.603 2.618.932 5.336.932 8.13 0 15.913-10.329 29.481-24.839 34.765v7.831c0 8.291-6.934 15.013-15.487 15.013h-47.956c-20.091 0-34.595-18.644-29.071-37.369 1.091-3.697 3.714-6.894 7.367-8.392 4.787-1.963 8.145-6.557 8.145-11.912v-8.88c0-7.14-5.971-12.928-13.336-12.928h-15.141c-6.632 0-11.38-6.211-9.449-12.362l6.706-21.359c2.33-7.422-3.399-14.918-11.402-14.918h-69.53c-11.987 0-21.658-9.614-21.255-21.322.386-11.2 10.254-19.911 21.813-19.911z" fill="#785252"/><path d="m373.155 18.798c3.87 4.94 10.903 6.153 16.225 2.709 3.1-2.006 6.521-3.579 10.17-4.644-7.019-7.813-17.346-12.758-28.875-12.758-4.955 0-9.688.913-14.033 2.574 6.591 2.512 12.295 6.734 16.513 12.119z" fill="#664646"/><path d="m499.657 100.928c4.944-6.253 7.883-14.074 7.883-22.562 0-17.549-12.56-32.249-29.44-36.127-1.702-.391-3.084-1.582-3.73-3.204-5.539-13.895-19.447-23.753-35.735-23.753-4.952 0-9.682.916-14.025 2.576 9.951 3.795 17.872 11.502 21.729 21.177.647 1.622 2.029 2.813 3.73 3.204 16.88 3.877 29.44 18.578 29.44 36.127 0 8.487-2.939 16.308-7.883 22.562-3.281 4.15-3.281 10.06 0 14.21 4.944 6.253 7.883 14.074 7.883 22.562 0 11.738-5.625 22.197-14.397 29.001.604 2.618.932 5.336.932 8.13 0 15.912-10.329 29.481-24.839 34.765v7.831c0 8.291-6.934 15.013-15.487 15.013h28.031c8.553 0 15.487-6.722 15.487-15.013v-7.831c14.51-5.284 24.839-18.853 24.839-34.765 0-2.794-.329-5.512-.932-8.13 8.773-6.804 14.397-17.263 14.397-29.001 0-8.487-2.939-16.308-7.883-22.562-3.281-4.15-3.281-10.06 0-14.21z" fill="#664646"/><path d="m452.06 273.858h-85.849c-10.221 0-18.506 8.285-18.506 18.506v12.956h111.695v-24.122c0-4.054-3.287-7.34-7.34-7.34z" fill="#5d91b9"/><path d="m512 334.667v168.078c0 2.845-2.306 5.151-5.151 5.151h-242.101v-138.261c0-35.52 28.795-64.315 64.315-64.315h153.59c16.208 0 29.347 13.139 29.347 29.347z" fill="#f5de46"/><path d="m323.934 358.099c-5.767 0-10.442 4.675-10.442 10.442v54.354h20.884v-54.354c0-5.767-4.675-10.442-10.442-10.442z" fill="#ecc52e"/><path d="m482.653 305.32h-31.733c16.208 0 29.347 13.139 29.347 29.347v168.077c0 2.845-2.306 5.151-5.151 5.151h31.733c2.845 0 5.151-2.306 5.151-5.151v-168.077c0-16.208-13.139-29.347-29.347-29.347z" fill="#ecc52e"/><path d="m130.143 460.273h134.606v-37.377h69.628v56.155c0 15.931-12.914 28.845-28.845 28.845h-143.375c-8.46 0-15.317-6.858-15.317-15.317v-2.202c0-1.226-.994-2.219-2.219-2.219h-18.562c-6.749 0-11.157 4.943-13.876 9.882-3.311 6.014-9.522 9.856-16.388 9.856h-3.315c-5.719 0-10.012-5.318-8.71-10.887 4.924-21.055 23.817-36.736 46.373-36.736z" fill="#ffcdbe"/><path d="m313.492 422.896v56.155c0 15.931-12.914 28.845-28.845 28.845h20.884c15.931 0 28.845-12.914 28.845-28.845v-56.155z" fill="#ebae9d"/><path d="m139.042 304.706v8.685c0 9.683-7.849 17.532-17.532 17.532s-17.532-7.849-17.532-17.532v-8.685c0-9.683 7.849-17.532 17.532-17.532s17.532 7.85 17.532 17.532z" fill="#ffdecf"/><path d="m139.042 179.521v8.685c0 9.683-7.849 17.532-17.532 17.532s-17.532-7.849-17.532-17.532v-8.685c0-9.683 7.849-17.532 17.532-17.532s17.532 7.849 17.532 17.532z" fill="#ebae9d"/></g></svg>