<svg id="Capa_1" enable-background="new 0 0 512 512" height="512" viewBox="0 0 512 512" width="512" xmlns="http://www.w3.org/2000/svg"><path d="m442.397 428.503h-104.932c-14.491 0-26.67 10.885-28.29 25.286l-5.628 50.011c-.42 3.729 2.499 6.994 6.251 6.994h160.265c3.753 0 6.671-3.265 6.251-6.994l-5.628-50.011c-1.619-14.4-13.798-25.286-28.289-25.286z" fill="#ff646f"/><path d="m476.315 503.8-5.628-50.011c-1.62-14.4-13.799-25.286-28.291-25.286h-34.139c14.491 0 26.67 10.885 27.337 25.286l6.415 57.006h28.055c3.752 0 6.67-3.265 6.251-6.995z" fill="#ff4755"/><path d="m27.189 25.902h402.656v308.676h-402.656z" fill="#d5f3f7"/><path d="m395.721 25.902h34.125v308.675h-34.125z" fill="#a7e8f1"/><path d="m466.246 255.306v-115.976c0-14.745-11.953-26.699-26.699-26.699h-99.233c-14.745 0-26.699 11.953-26.699 26.699v115.976z" fill="#ffa812"/><path d="m439.547 112.631h-7.426v142.675h34.125v-115.976c0-14.746-11.953-26.699-26.699-26.699z" fill="#ff9a00"/><path d="m417.116 221.134v-26.741h-54.369v26.741c0 5.976-4.194 11.131-10.045 12.346l-31.982 6.645c0 70.921 31.851 78.018 69.211 78.018s69.211-7.097 69.211-78.018l-31.982-6.645c-5.85-1.216-10.044-6.371-10.044-12.346z" fill="#fff3de"/><path d="m176.653 281.946c-1.467 0-2.948-.43-4.247-1.324l-63.563-43.777c-3.411-2.35-4.272-7.02-1.923-10.431 2.351-3.411 7.021-4.272 10.431-1.923l63.563 43.777c3.411 2.35 4.272 7.02 1.923 10.431-1.455 2.113-3.799 3.247-6.184 3.247z" fill="#dd8858"/><path d="m445.874 355.965h-434.713c-6.164 0-11.161-4.997-11.161-11.161v-11.694c0-6.164 4.997-11.161 11.161-11.161h434.712c6.164 0 11.161 4.997 11.161 11.161v11.694c.001 6.164-4.996 11.161-11.16 11.161z" fill="#e1d3ce"/><path d="m445.874 35.222h-434.713c-6.164 0-11.161-4.998-11.161-11.162v-11.693c0-6.165 4.997-11.162 11.161-11.162h434.712c6.164 0 11.161 4.997 11.161 11.161v11.694c.001 6.164-4.996 11.162-11.16 11.162z" fill="#e1d3ce"/><path d="m511.982 398.133-3.27-116.968c-1.247-18.432-14.618-33.777-32.706-37.535l-16.865-3.504c-1.414 31.7-31.851 57.031-69.211 57.031s-67.797-25.331-69.211-57.031l-16.865 3.504c-18.088 3.758-31.458 19.103-32.705 37.535l-1.2 17.729c-.463 6.849-8.206 10.59-13.86 6.696l-44.617-30.618c-8.277-5.68-19.591-3.573-25.268 4.706l-3.159 4.607c-5.8 8.458-3.456 20.036 5.176 25.573l65.237 41.841c4.556 2.791 9.795 4.268 15.138 4.268h43.423v60.89c0 14.764 11.969 26.733 26.733 26.733h129.028c24.906-.003 44.898-20.561 44.202-45.457z" fill="#6daccb"/><path d="m511.982 398.133-3.27-116.968c-1.247-18.432-14.618-33.777-32.706-37.535l-16.865-3.504c-.408 9.141-3.24 17.746-7.945 25.373 13.33 6.247 22.579 19.323 23.606 34.499l3.27 116.968c.276 9.876-2.712 19.063-7.963 26.562 23.811-1.235 42.548-21.28 41.873-45.395z" fill="#3693bd"/><path d="m311.958 355.965v-22.962c0-4.143-3.357-7.5-7.5-7.5s-7.5 3.357-7.5 7.5v22.962z" fill="#3693bd"/><path d="m341.559 170.706c.274 12.773 5.642 25.067 15.339 33.417 7.807 6.722 18.78 19.288 33.276 19.45 14.496-.162 25.47-12.728 33.276-19.45 9.697-8.35 15.065-20.644 15.339-33.417l.069-64.308h-97.842z" fill="#fff3de"/><path d="m404.734 106.399-.069 64.307c-.274 12.773-5.642 25.068-15.339 33.417-4.384 3.775-9.768 9.394-16.214 13.623 5.031 3.301 10.708 5.756 17.062 5.827 14.496-.162 25.47-12.728 33.276-19.45 9.697-8.349 15.065-20.644 15.339-33.417l.069-64.307z" fill="#ffe5c2"/><path d="m466.246 146.899s-26.483-2.102-35.545-26.462c0 0-64.019 51.254-117.085 26.462v-12.939c0-38.689 31.363-70.052 70.052-70.052h12.527c38.689 0 70.052 31.363 70.052 70.052v12.939z" fill="#ffc265"/><path d="m203.903 286.338-6.431 9.655c-4.176 6.27-12.645 7.968-18.915 3.792l-4.828-3.215c-8.936-5.952-11.356-18.022-5.404-26.958 5.952-8.937 18.022-11.356 26.958-5.404l4.828 3.215c6.27 4.176 7.968 12.645 3.792 18.915z" fill="#fff3de"/><g fill="#98db7c"><path d="m267.317 88.245h-194.118c-4.143 0-7.5-3.357-7.5-7.5s3.357-7.5 7.5-7.5h194.118c4.143 0 7.5 3.357 7.5 7.5s-3.357 7.5-7.5 7.5z"/><path d="m267.317 141.882h-194.118c-4.143 0-7.5-3.357-7.5-7.5s3.357-7.5 7.5-7.5h194.118c4.143 0 7.5 3.357 7.5 7.5s-3.357 7.5-7.5 7.5z"/><path d="m169.875 195.518h-96.676c-4.143 0-7.5-3.357-7.5-7.5s3.357-7.5 7.5-7.5h96.676c4.143 0 7.5 3.357 7.5 7.5s-3.357 7.5-7.5 7.5z"/></g></svg>