<svg id="Capa_1" enable-background="new 0 0 512 512" height="512" viewBox="0 0 512 512" width="512" xmlns="http://www.w3.org/2000/svg"><g><g><g><g><path d="m334.155 449.733c-.098 2.371-.171 4.746-.189 7.125l-.42 55.142h47.92c12.984 0 23.509-10.526 23.509-23.509v-38.757h-70.82z" fill="#a7a2d3"/><g><g><path d="m348.391 460.475c.026-3.399.149-7.022.366-10.742h-79.014v38.757c0 12.984 10.525 23.509 23.509 23.509h40.294c9.05-6.129 14.514-16.311 14.617-27.241z" fill="#beb9dd"/><path d="m352.608 419.642h.004c7.121-35.465 23.152-68.776 47.282-96.252.904-1.03 1.819-2.052 2.745-3.066 26.298-28.819 42.336-67.159 42.336-109.248 0-67.534-41.29-125.416-100.002-149.796-13.011-5.403-27.361-6.802-41.166-3.988-.061.012-.122.025-.183.037-72.571 14.875-125.446 79.211-125.105 155.93.183 41.07 15.953 78.456 41.7 106.551 29.004 31.65 47.329 71.336 52.748 113.486h77.361c.629-4.644 1.414-9.343 2.28-13.654z" fill="#ffe07d"/><path d="m336.184 53.701c-11.16.081-22.049 1.334-32.558 3.627 71.445 15.525 124.958 79.113 124.958 155.209 0 41.232-15.712 78.792-41.474 107.023-.907.994-1.803 1.995-2.689 3.004-27.336 31.126-44.07 69.893-48.956 110.73h66.297c5.465-42.232 23.95-81.94 52.964-113.734 25.762-28.232 41.474-65.791 41.474-107.023-.001-88.116-71.752-159.474-160.016-158.836z" fill="#ffd064"/></g><path d="m403.005 242.57c-8.723 0-13.383 4.767-16.467 7.922-2.633 2.693-3.389 3.271-5.418 3.271s-2.785-.578-5.418-3.271c-10.257-10.492-22.304-10.875-32.933.001-2.632 2.693-3.388 3.271-5.415 3.271s-2.783-.578-5.415-3.271c-10.256-10.492-22.302-10.876-32.931 0-2.632 2.693-3.388 3.271-5.415 3.271s-2.783-.578-5.415-3.271c-3.083-3.154-7.743-7.922-16.465-7.922-6.901 0-9.238 7.802-6.845 12.371l33.68 64.339c2.701 5.16 4.129 10.966 4.129 16.79v18.828c0 4.267 3.459 7.726 7.726 7.726s7.726-3.459 7.726-7.726v-18.829c0-8.31-2.037-16.594-5.892-23.957l-22.652-43.272c1.235.233 2.56.374 4.007.374 8.722 0 13.382-4.768 16.466-7.922 2.632-2.693 3.388-3.271 5.415-3.271s2.783.578 5.415 3.271c3.083 3.155 7.743 7.922 16.465 7.922s13.382-4.767 16.466-7.922c2.632-2.693 3.388-3.271 5.416-3.271s2.784.578 5.417 3.271c3.084 3.154 7.744 7.922 16.467 7.922 1.449 0 2.776-.141 4.012-.375l-22.652 43.273c-3.855 7.363-5.892 15.647-5.892 23.957v18.828c0 4.267 3.459 7.726 7.726 7.726s7.726-3.459 7.726-7.726v-18.828c0-5.824 1.428-11.63 4.129-16.79l33.68-64.339c2.699-5.15-.35-12.371-6.843-12.371z" fill="#ebb044"/></g><path d="m377.2 354.898h-84.539c-6.995 0-12.665 5.67-12.665 12.665v26.624h79.397c4.558-13.664 10.518-26.833 17.807-39.289z" fill="#5766cb"/><path d="m382.056 354.898h-20.738c-7.15 12.456-12.943 25.632-17.326 39.289h50.728v-26.624c.001-6.995-5.669-12.665-12.664-12.665z" fill="#3d4fc3"/><g><g fill="#dddaec"><path d="m425.661 400.418c0-.118-.015-.233-.018-.351-.984 3.117-1.88 6.263-2.719 9.426 1.727-2.602 2.737-5.719 2.737-9.075z"/><path d="m363.111 383.979h-97.617c-9.079 0-16.438 7.36-16.438 16.439s7.36 16.439 16.438 16.439h87.723c2.411-11.227 5.717-22.223 9.894-32.878z"/></g><path d="m349.927 436.422h-.006c.673-5.626 1.627-11.498 2.687-16.78h.004c.187-.932.406-1.856.605-2.786h-87.723c-9.079 0-16.438 7.36-16.438 16.438 0 9.079 7.36 16.439 16.438 16.439h83.262c.254-4.359.639-8.855 1.171-13.311z" fill="#f9f6f9"/><path d="m348.391 460.475c.026-3.399.149-7.022.366-10.742h-83.262c-9.079 0-16.438 7.36-16.438 16.438 0 9.079 7.36 16.438 16.438 16.438h82.728z" fill="#dddaec"/></g><g><path d="m409.223 383.979h-61.659c-4.049 10.658-7.214 21.657-9.467 32.877h71.126c9.079 0 16.438-7.36 16.438-16.439 0-9.078-7.359-16.438-16.438-16.438z" fill="#d0cee7"/><path d="m409.223 416.857h-71.126c-2.167 10.792-3.488 21.786-3.945 32.877h75.071c9.079 0 16.438-7.36 16.438-16.439s-7.359-16.438-16.438-16.438z" fill="#dddaec"/><g><path d="m409.223 449.733h-75.071c-.098 2.371-.168 4.746-.186 7.125l-.196 25.752h75.453c9.079 0 16.438-7.36 16.438-16.438 0-9.079-7.359-16.439-16.438-16.439z" fill="#d0cee7"/><path d="m251.901 475.414c1.475 2.165 3.451 3.961 5.765 5.217z" fill="#dddaec"/></g></g></g></g><g><g fill="#bed8fb"><path d="m208.864 144.349v-109.169c0-19.429-15.751-35.18-35.18-35.18h-122.703c-19.429 0-35.18 15.751-35.18 35.18v109.169c0 19.429 15.751 35.18 35.18 35.18h118.656c19.429 0 39.227-15.751 39.227-35.18z"/><path d="m234.517 222.63 2.826 2.095c1.208.895 2.77.053 2.936-1.239z"/></g><path d="m229.706 0h-67.305c19.429 0 35.18 15.751 35.18 35.18v109.169c0 19.429-15.751 35.18-35.18 35.18h10.854c2.016 0 3.979.648 5.599 1.849l58.49 43.348c1.457 1.08 3.436-.366 2.85-2.082l-13.355-39.105c-.671-1.966.79-4.009 2.867-4.009 19.429 0 35.18-15.751 35.18-35.18v-109.17c0-19.429-15.75-35.18-35.18-35.18z" fill="#9dc6fb"/><g><g><path d="m219.806 54.354h-92.245c-4.267 0-7.726-3.459-7.726-7.726s3.459-7.726 7.726-7.726h92.245c4.267 0 7.726 3.459 7.726 7.726s-3.459 7.726-7.726 7.726z" fill="#fffbe4"/></g><g><path d="m219.806 92.811h-158.925c-4.267 0-7.726-3.459-7.726-7.726s3.459-7.726 7.726-7.726h158.926c4.267 0 7.726 3.459 7.726 7.726s-3.46 7.726-7.727 7.726z" fill="#fffbe4"/></g><g><path d="m219.806 131.269h-158.925c-4.267 0-7.726-3.459-7.726-7.726s3.459-7.726 7.726-7.726h158.926c4.267 0 7.726 3.459 7.726 7.726 0 4.266-3.46 7.726-7.727 7.726z" fill="#fffbe4"/></g></g><g fill="#fbf4c6"><path d="m219.806 54.354c4.267 0 7.726-3.459 7.726-7.726s-3.459-7.726-7.726-7.726h-22.225v15.453h22.225z"/><path d="m219.806 92.811c4.267 0 7.726-3.459 7.726-7.726s-3.459-7.726-7.726-7.726h-22.225v15.453h22.225z"/><path d="m219.806 131.269c4.267 0 7.726-3.459 7.726-7.726s-3.459-7.726-7.726-7.726h-22.225v15.453h22.225z"/></g></g></g></g></svg>