<svg id="Capa_1" enable-background="new 0 0 512 512" height="512" viewBox="0 0 512 512" width="512" xmlns="http://www.w3.org/2000/svg"><g><g><g><g><g><g><g><g><g><g><path d="m228.012 385.277c17.03 11.025 38.946 11.025 55.976 0l217.002-140.484c-.747-4.462-2.97-8.539-6.326-11.461l-227.191-197.788c-6.668-5.805-16.277-5.805-22.946 0l-227.19 197.788c-3.355 2.921-5.579 6.998-6.326 11.458z" fill="#ffc250"/><g><path d="m424.127 484.548c9.984 0 18.078-8.581 18.078-19.165v-187.675l-159.306 103.133c-16.367 10.596-37.431 10.596-53.798 0l-216.849-140.388c-.991 2.396-1.52 5.011-1.52 7.691v228.163l11.675 8.241z" fill="#ffe07d"/></g><g><path d="m499.75 240.455-65.786 42.589v174.097c0 10.585-8.094 19.165-18.078 19.165h-405.154v16.528c0 10.586 8.093 19.166 18.078 19.166h454.38c9.984 0 18.078-8.58 18.078-19.165v-244.691c0-2.68-.529-5.294-1.518-7.689z" fill="#ffd064"/></g></g></g></g><g><path d="m384.304 96.76c-10.503 0-19.018-8.515-19.018-19.018v-66.669c0-3.158-1.866-6-4.738-7.315-5.357-2.453-11.227-3.758-17.232-3.758h-248.468c-22.863 0-41.397 18.534-41.397 41.397v225.728l175.65 113.716c16.367 10.596 37.43 10.596 53.798 0l115.556-74.809v-209.272z" fill="#eaf2ff"/><g><path d="m446.424 85.961-55.029-55.029c.125 1.307.192 2.623.192 3.947v275.599l66.962-43.35v-151.895c0-10.979-4.361-21.509-12.125-29.272z" fill="#dbe8f9"/></g><path d="m446.424 85.961-73.836-73.836c-3.539-3.539-7.656-6.361-12.125-8.395v78.835c0 10.503 8.515 19.018 19.018 19.018h76.746c-2.035-5.823-5.358-11.177-9.803-15.622z" fill="#e07f84"/></g></g></g></g><g><circle cx="256" cy="194.763" fill="#c9e0fd" r="98.19"/><path d="m307.27 184.369c-1.028-4.658-6.821-6.328-10.195-2.955l-26.488 26.488c-4.742 4.742-12.43 4.742-17.172 0l-10.555-10.555c-4.742-4.742-4.742-12.43 0-17.172l26.488-26.488c3.373-3.373 1.704-9.167-2.955-10.195-17.329-3.822-36.182 1.005-49.661 14.483-9.73 9.73-14.951 22.261-15.665 34.997-.007.117-.013.233-.019.348-.815 15.516-7.261 30.195-18.248 41.182l-10.919 10.919c4.033 6.686 8.917 13.002 14.687 18.771s12.085 10.654 18.771 14.687l10.919-10.919c10.938-10.938 25.539-17.462 40.989-18.238.179-.009.36-.019.542-.029 12.736-.713 25.267-5.935 34.997-15.665 13.48-13.477 18.307-32.33 14.484-49.659z" fill="#eaf2ff"/></g></g><g><path d="m424.127 484.548c9.984 0 18.078-8.581 18.078-19.165v-1.704l-133.734-98.637-.577-.381-24.994 16.181c-16.367 10.596-37.431 10.596-53.798 0l-25.434-16.466-.742.73-160.334 119.442z" fill="#ffc250"/></g><path d="m433.942 457.584c-.224 10.378-8.214 18.722-18.057 18.722h-362.23l-38.7 28.83c3.316 4.194 8.289 6.864 13.855 6.864h454.38c5.847 0 11.03-2.955 14.335-7.52z" fill="#ebb044"/></g></g><g><path d="m256 300.679c-58.536 0-105.916-47.371-105.916-105.916 0-58.537 47.371-105.916 105.916-105.916 58.536 0 105.916 47.371 105.916 105.916 0 58.536-47.371 105.916-105.916 105.916zm0-196.337c-49.813 0-90.463 40.217-90.463 90.421 0 24.163 9.41 46.881 26.496 63.967 56.633 56.634 154.431 16.404 154.431-63.967-.001-50.213-40.659-90.421-90.464-90.421z" fill="#9bc4f9"/></g></g></svg>