<svg id="Layer_1" enable-background="new 0 0 510 510" height="512" viewBox="0 0 510 510" width="512" xmlns="http://www.w3.org/2000/svg"><g><path d="m435 287.387 37.5-17.298 37.5-37.298c-20.324-16.26-63.027-50.422-75-60l-10 57.298z" fill="#ff742d"/><path d="m75 172.791-75 60 38.696 38.168 36.304 16.428 10-57.298z" fill="#ff902d"/><path d="m75 0v287.387l99.761 113.741 80.239-71.128 10-135-10-195c-10 0-170 0-180 0z" fill="#d0e8ff"/><path d="m435 0c-10 0-170 0-180 0v330l61.666 71.128 118.334-113.741c0-10.335 0-277.143 0-287.387z" fill="#9dcfff"/><path d="m210 165c0-24.811 20.186-45 45-45l10-30-10-30c-5.246 0-9.754 0-15 0v31.51c-9.008 1.834-17.981 5.414-26.33 10.947-7.803-7.803-14.507-14.507-22.31-22.31-7.419 7.419-13.794 13.794-21.213 21.213.452.452 20.034 20.034 22.309 22.311-5.178 7.809-8.985 16.699-10.948 26.329-11.02 0-20.489 0-31.509 0v30h31.509c1.856 9.107 5.474 18.073 10.948 26.329-.452.452-20.034 20.034-22.309 22.311l21.213 21.213 22.31-22.31c8.316 5.512 17.285 9.105 26.33 10.947v31.51h15l10-30-10-30c-24.811 0-45-20.186-45-45z" fill="#3b6bab"/><path d="m270 238.49c9.045-1.842 18.015-5.437 26.33-10.947 7.803 7.803 14.507 14.507 22.309 22.31 7.419-7.419 13.794-13.794 21.213-21.213-.452-.452-20.034-20.034-22.31-22.311 5.167-7.794 8.982-16.681 10.947-26.329h31.51c0-10.492 0-19.508 0-30-11.021 0-20.489 0-31.51 0-1.848-9.071-5.452-18.039-10.947-26.329.452-.452 20.034-20.034 22.31-22.311-7.419-7.419-13.794-13.794-21.213-21.213-7.803 7.803-14.507 14.507-22.309 22.31-8.348-5.532-17.321-9.112-26.33-10.947 0-11.021 0-20.489 0-31.51-5.246 0-9.754 0-15 0v60c24.811 0 45 20.187 45 45 0 24.812-20.186 45-45 45v60h15c0-11.021 0-20.489 0-31.51z" fill="#00467d"/><path d="m0 232.791c5.662 4.122 187.677 136.62 193.334 140.738l-95.723 74.628-97.611 61.843z" fill="#ffba2d"/><path d="m0 510h255l10-90-10-90c-14.162 9.996-240.838 170.004-255 180z" fill="#ffda2d"/><path d="m510 510c0-15.387 0-261.822 0-277.209-4.355 3.171-189.766 138.141-193.334 140.738l86.667 68.235z" fill="#ff902d"/><path d="m255 330v180h255c-14.162-9.996-240.838-170.004-255-180z" fill="#ffba2d"/></g></svg>