<?xml version="1.0" encoding="iso-8859-1"?>
<!-- Generator: Adobe Illustrator 19.0.0, SVG Export Plug-In . SVG Version: 6.00 Build 0)  -->
<svg version="1.1" id="Capa_1" xmlns="http://www.w3.org/2000/svg" xmlns:xlink="http://www.w3.org/1999/xlink" x="0px" y="0px"
	 viewBox="0 0 512 512" style="enable-background:new 0 0 512 512;" xml:space="preserve">
<path style="fill:#BEE673;" d="M487.226,421.16H24.774C11.092,421.16,0,410.069,0,396.386V115.612
	c0-13.682,11.092-24.774,24.774-24.774h462.452c13.682,0,24.774,11.092,24.774,24.774v280.774
	C512,410.069,500.908,421.16,487.226,421.16z"/>
<path style="fill:#AADC64;" d="M24.774,90.838h132.129l198.194,330.323H24.774C11.092,421.16,0,410.069,0,396.386V115.612
	C0,101.929,11.092,90.838,24.774,90.838z"/>
<path style="fill:#FFE17D;" d="M115.613,189.934h-41.29c-9.122,0-16.516,7.395-16.516,16.516v24.774
	c0,9.122,7.395,16.516,16.516,16.516h41.29c9.122,0,16.516-7.395,16.516-16.516v-24.774
	C132.129,197.329,124.735,189.934,115.613,189.934z"/>
<g>
	<path style="fill:#FFFFFF;" d="M384.04,217.423c-1.565,0-3.137-0.44-4.54-1.367c-3.806-2.508-4.855-7.633-2.347-11.44
		c3.806-5.762,3.597-13.363-0.516-18.903c-2.718-3.665-1.952-8.835,1.71-11.556c3.653-2.722,8.823-1.948,11.548,1.71
		c8.242,11.101,8.661,26.31,1.048,37.847C389.355,216.12,386.726,217.423,384.04,217.423z"/>
	<path style="fill:#FFFFFF;" d="M410.613,237.089c-1.645,0-3.306-0.492-4.758-1.512c-3.726-2.629-4.613-7.782-1.976-11.508
		c12.218-17.302,12.065-40.444-0.371-57.581c-2.677-3.694-1.855-8.855,1.839-11.536c3.685-2.673,8.847-1.851,11.532,1.835
		c16.589,22.863,16.782,53.73,0.484,76.806C415.758,235.87,413.21,237.089,410.613,237.089z"/>
	<path style="fill:#FFFFFF;" d="M437.702,255.999c-1.645,0-3.298-0.488-4.742-1.504c-3.734-2.625-4.629-7.778-2-11.508
		c20.153-28.625,19.992-66.984-0.395-95.452c-2.653-3.706-1.798-8.863,1.911-11.52c3.702-2.657,8.871-1.806,11.524,1.907
		c24.468,34.165,24.653,80.21,0.46,114.573C442.855,254.777,440.298,255.999,437.702,255.999z"/>
</g>
<rect x="82.58" y="189.939" style="fill:#FFD164;" width="16.516" height="57.806"/>
<g>
	<path style="fill:#EDEBED;" d="M132.129,313.805H57.806c-4.561,0-8.258-3.697-8.258-8.258v-8.258c0-4.561,3.697-8.258,8.258-8.258
		h74.323c4.561,0,8.258,3.697,8.258,8.258v8.258C140.387,310.108,136.69,313.805,132.129,313.805z"/>
	<path style="fill:#EDEBED;" d="M239.484,313.805h-74.323c-4.561,0-8.258-3.697-8.258-8.258v-8.258c0-4.561,3.697-8.258,8.258-8.258
		h74.323c4.561,0,8.258,3.697,8.258,8.258v8.258C247.742,310.108,244.045,313.805,239.484,313.805z"/>
	<path style="fill:#EDEBED;" d="M239.484,363.354H57.806c-4.561,0-8.258-3.697-8.258-8.258v-8.258c0-4.561,3.697-8.258,8.258-8.258
		h181.677c4.561,0,8.258,3.697,8.258,8.258v8.258C247.742,359.657,244.045,363.354,239.484,363.354z"/>
	<path style="fill:#EDEBED;" d="M346.839,363.354h-74.323c-4.561,0-8.258-3.697-8.258-8.258v-8.258c0-4.561,3.697-8.258,8.258-8.258
		h74.323c4.561,0,8.258,3.697,8.258,8.258v8.258C355.097,359.657,351.4,363.354,346.839,363.354z"/>
	<path style="fill:#EDEBED;" d="M346.839,313.805h-74.323c-4.561,0-8.258-3.697-8.258-8.258v-8.258c0-4.561,3.697-8.258,8.258-8.258
		h74.323c4.561,0,8.258,3.697,8.258,8.258v8.258C355.097,310.108,351.4,313.805,346.839,313.805z"/>
	<path style="fill:#EDEBED;" d="M454.194,313.805h-74.323c-4.561,0-8.258-3.697-8.258-8.258v-8.258c0-4.561,3.697-8.258,8.258-8.258
		h74.323c4.561,0,8.258,3.697,8.258,8.258v8.258C462.452,310.108,458.754,313.805,454.194,313.805z"/>
</g>
<g>
</g>
<g>
</g>
<g>
</g>
<g>
</g>
<g>
</g>
<g>
</g>
<g>
</g>
<g>
</g>
<g>
</g>
<g>
</g>
<g>
</g>
<g>
</g>
<g>
</g>
<g>
</g>
<g>
</g>
</svg>
