<svg id="Capa_1" enable-background="new 0 0 512 512" height="512" viewBox="0 0 512 512" width="512" xmlns="http://www.w3.org/2000/svg"><g><path d="m395.184 366.556h-103.407c-40.035 0-72.49 32.455-72.49 72.49v12.249c.001 11.621 112.113 60.705 123.734 60.705h.918c11.622 0 123.734-49.083 123.734-60.705v-12.249c0-40.035-32.454-72.49-72.489-72.49z" fill="#80b4fb"/><path d="m241.845 439.046v12.249c0 11.621 9.428 21.04 21.049 21.04h-22.558c-11.629 0-21.049-9.419-21.049-21.04v-12.249c0-40.038 32.456-72.485 72.494-72.485h22.558c-40.037 0-72.494 32.447-72.494 72.485z" fill="#5490f9"/><path d="m381.192 376.147c24.237 24.237 8.927 51.306 8.927 51.306-29.814-6.114-46.516-22.31-46.516-22.31s-16.702 16.196-46.516 22.31c0 0-15.31-27.068 8.927-51.306" fill="#5490f9"/><path d="m381.051 375.567c.015.193.015.386.015.58 0 16.013-16.824 28.996-37.582 28.996s-37.589-12.983-37.589-28.996c0-.193 0-.386.015-.58" fill="#f1b986"/><path d="m268.683 451.295v20.502h38.263c19.924 0 36.075 16.151 36.075 36.075v4.128h-102.69c-11.622 0-21.043-9.421-21.043-21.043v-39.662z" fill="#f1d0a5"/><path d="m240.268 512h22.558c-11.589-.037-20.98-9.44-20.98-21.038v-39.667h-22.558v39.667c0 11.597 9.382 21.001 20.98 21.038z" fill="#f1b986"/><path d="m418.278 451.295v20.502h-38.263c-19.924 0-36.075 16.151-36.075 36.075v4.128h102.691c11.622 0 21.043-9.421 21.043-21.043v-39.662z" fill="#f1d0a5"/><path d="m418.278 451.033h20.764v20.764h-20.764z" fill="#f1b986"/><path d="m418.278 437.886h20.764v13.147h-20.764z" fill="#5490f9"/><path d="m380.018 471.794h16.708c-19.93 0-36.078 16.157-36.078 36.078v4.128h-16.708v-4.128c0-19.921 16.148-36.078 36.078-36.078z" fill="#f1b986"/><path d="m467.746 287.112h.174c14.943 0 27.052-12.118 27.052-27.052 0-14.943-12.108-27.062-27.052-27.062-.194 0-.389 0-.583.01h-247.713c-.194-.01-.389-.01-.583-.01-14.943 0-27.052 12.118-27.052 27.062 0 14.933 12.108 27.052 27.052 27.052h.174" fill="#f1b986"/><path d="m461.523 162.357c-78.695-7.629-157.39-7.629-236.085 0-6.107 48.93-7.905 97.859-5.396 146.789 1.827 35.618 30.328 63.969 65.954 65.651 38.323 1.809 76.647 1.809 114.97 0 35.625-1.682 64.127-30.033 65.954-65.651 2.509-48.93.71-97.859-5.397-146.789z" fill="#f1d0a5"/><path d="m225.442 162.349c39.341-3.816 78.693-5.717 118.046-5.717-19.923 0-39.846 1.925-59.768 5.776-3.099 49.402-4.003 98.804-2.735 148.194.834 32.508 12.714 59.017 28.305 65.063-7.76-.211-15.532-.505-23.292-.869-35.619-1.679-64.124-30.031-65.955-65.65-2.502-48.932-.706-97.865 5.399-146.797z" fill="#f1b986"/><path d="m343.481 319.847c-13.737 0-26.419-8.021-32.309-20.433-1.834-3.865-.189-8.484 3.676-10.318 3.863-1.833 8.483-.189 10.318 3.677 3.34 7.037 10.529 11.583 18.315 11.583s14.974-4.547 18.314-11.583c1.833-3.866 6.452-5.51 10.318-3.677 3.865 1.834 5.51 6.453 3.676 10.318-5.89 12.412-18.572 20.433-32.308 20.433z" fill="#da4a54"/><g fill="#454045"><path d="m285.88 233.794c-6.21 0-11.263 7.52-11.263 16.764s5.053 16.765 11.263 16.765c6.209 0 11.262-7.521 11.262-16.765s-5.053-16.764-11.262-16.764z"/><path d="m401.081 233.794c-6.209 0-11.262 7.52-11.262 16.764s5.053 16.765 11.262 16.765c6.21 0 11.263-7.521 11.263-16.765s-5.052-16.764-11.263-16.764z"/></g><path d="m409.026 203.045c-45.233 17.473-109.484 9.768-141.865-22.612 0 0-7.689 52.574-47.528 52.574l-17.373 5.842c-46.399-182.128 52.566-133.464 52.566-133.464 9.345-18.106 22.954-25.603 37.174-27.411 1.252-.155 2.504-.27 3.764-.348.1 0 .201-.008.301-.015 10.016-.533 20.155 1.499 29.166 4.397 3.138 1.012 6.144 2.125 8.957 3.277 11.322 4.629 19.568 9.83 21.299 10.943.224.155.34.232.34.232 10.186-13.478 19.9-25.673 30.58-25.673 4.382 0 7.411 1.677 9.444 4.359 7.705 10.101 1.376 34.39.866 36.299l-.023.085c.008-.015.015-.046.031-.085l.054-.139c1.368-3.447 16.669-40.518 44.112-40.518 1.731 0 3.284.162 4.668.471 20.456 4.521 4.444 40.302 2.682 44.089l-.046.108c-.046.093-.077.162-.093.193.873-1.113 35.132-44.607 50.356-24.653.008.015.008.015.015.023 15.354 20.24-44.237 94.561-89.447 112.026z" fill="#665e66"/><g fill="#454045"><path d="m498.456 90.996h-.008c-7.697-7.689-34.359 28.609-50.372 24.676l.116-.216c-.046.093-.077.162-.093.193.874-1.114 35.132-44.607 50.357-24.653z"/><path d="m445.557 71.258c-11.563-2.626-22.282 19.384-28.338 35.009-2.929 7.556-12 10.588-18.888 6.319l-1.654-1.025.015-.031.023-.085h.008l.054-.139c1.368-3.447 16.669-40.518 44.112-40.518 1.731-.001 3.285.161 4.668.47z"/><path d="m291.997 77.974c-33.092 5.835-45.596 81.701-24.838 102.459 0 0-7.689 52.574-47.528 52.574l-17.373 5.842c-46.399-182.128 52.566-133.464 52.566-133.464 9.345-18.107 22.954-25.603 37.173-27.411z"/><path d="m395.85 75.145c-11.631-11.631-19.382 48.015-45.565 57.566-26.183 9.552-28.633-2.658-28.633-2.658v-.008c12.89-4.768 23.772-19.838 34.166-33.594.008.008.008.008.008.008.317-.425.634-.842.951-1.26.394-.533.804-1.066 1.206-1.592 9.413-12.295 18.501-22.821 28.424-22.821 4.381.001 7.41 1.678 9.443 4.359z"/></g><path d="m296.086 77.618c-.108 0-.216 0-.325.008.1 0 .201-.008.301-.015z" fill="#ecc32e"/><g><path d="m240.861 76.093c0 27.153-14.203 50.968-35.59 64.439h-81.003c-21.387-13.471-35.59-37.286-35.59-64.439 0-42.02 34.071-76.091 76.091-76.091 5.666 0 11.176.621 16.487 1.796.543.122 1.098.244 1.641.377 33.273 8.126 57.964 38.139 57.964 73.918z" fill="#f4dd45"/><path d="m160.49 140.537h-36.227c-21.375-13.468-35.586-37.289-35.586-64.445.001-42.021 34.073-76.092 76.094-76.092 5.664 0 11.182.626 16.483 1.805.553.116 1.107.233 1.645.379-33.285 8.11-57.994 38.119-57.994 73.909 0 27.155 14.196 50.976 35.585 64.444z" fill="#eab14d"/><path d="m194.689 80.13c0-4.278-3.468-7.745-7.745-7.745s-7.745 3.468-7.745 7.745c0 7.956-6.473 14.429-14.429 14.429s-14.429-6.473-14.429-14.429c0-4.278-3.468-7.745-7.745-7.745s-7.745 3.468-7.745 7.745c0 13.82 9.42 25.475 22.174 28.897v29.786c0 4.278 3.468 7.745 7.745 7.745s7.745-3.468 7.745-7.745v-29.786c12.754-3.421 22.174-15.077 22.174-28.897z" fill="#eab14d"/><path d="m211.268 172.875c3.611-3.611 5.842-8.601 5.842-14.109 0-11.021-8.934-19.951-19.951-19.951h-64.775c-5.513 0-10.498 2.232-14.109 5.842-3.611 3.611-5.846 8.596-5.846 14.109 0 11.017 8.934 19.951 19.955 19.951h13.86c-5.513 0-10.498 2.231-14.109 5.842-3.611 3.61-5.846 8.596-5.846 14.109 0 11.017 8.934 19.951 19.955 19.951h37.055c5.508 0 10.498-2.231 14.109-5.842 3.611-3.61 5.842-8.6 5.842-14.109 0-11.021-8.934-19.951-19.951-19.951h13.86c5.508 0 10.498-2.232 14.109-5.842z" fill="#dfeaef"/><path d="m150.722 198.668c0-5.515 2.231-10.502 5.845-14.107 3.604-3.614 8.592-5.845 14.106-5.845h-3.825c-11.018-.013-19.938-8.939-19.938-19.95 0-5.515 2.241-10.502 5.845-14.106 3.614-3.614 8.602-5.845 14.117-5.845h-34.492c-5.515 0-10.492 2.231-14.106 5.845-3.614 3.604-5.845 8.592-5.845 14.106 0 11.019 8.933 19.952 19.952 19.952h13.836c-5.505.007-10.484 2.235-14.083 5.844-3.614 3.604-5.845 8.592-5.845 14.107 0 11.019 8.933 19.952 19.952 19.952h24.433c-11.019-.002-19.952-8.935-19.952-19.953z" fill="#b4d0d5"/></g><g fill="#f4dd45"><path d="m40.731 130.95c-1.982 0-3.964-.756-5.477-2.269-3.025-3.024-3.025-7.929 0-10.953l21.964-21.964c3.024-3.024 7.929-3.024 10.953 0 3.025 3.024 3.025 7.928 0 10.953l-21.964 21.964c-1.512 1.512-3.494 2.269-5.476 2.269z"/><path d="m62.688 47.028c-1.982 0-3.964-.756-5.477-2.269l-21.957-21.957c-3.025-3.024-3.025-7.929 0-10.953 3.025-3.025 7.929-3.025 10.953 0l21.957 21.957c3.025 3.025 3.025 7.929 0 10.953-1.512 1.513-3.495 2.269-5.476 2.269z"/><path d="m49.858 78.011h-31.048c-2.147 0-4.197-.891-5.662-2.461-2.919-3.127-2.753-8.032.374-10.951 1.571-1.466 3.594-2.15 5.579-2.079h30.757c4.278 0 7.745 3.468 7.745 7.745s-3.467 7.746-7.745 7.746z"/></g></g></svg>