<svg id="Capa_1" enable-background="new 0 0 512 512" height="512" viewBox="0 0 512 512" width="512" xmlns="http://www.w3.org/2000/svg"><g><path d="m175.23 60.203h230.811c26.508 0 47.997 21.489 47.997 47.997v355.803c0 26.508-21.489 47.997-47.997 47.997h-213.176l-51.674-7.14-29.574-110.339v-108.419l9.369-210.666z" fill="#e7896e"/><path d="m155.324 457.973v-354.222c0-17.397 7.719-32.981 19.906-43.548h-69.271c-26.508 0-47.997 21.489-47.997 47.997v355.803c0 26.508 21.489 47.997 47.997 47.997h86.906c-21.922-8.156-37.541-29.265-37.541-54.027z" fill="#dd6642"/><path d="m342.649 471.153h13.937 31.417c12.717 0 23.027-10.309 23.027-23.027v-49.667l-50.107 13.609z" fill="#fdcb89"/><path d="m155.392 101.05h232.49c12.784 0 23.148 10.364 23.148 23.148v274.261l-51.127 15.832-17.254 56.862h-185.793l-27.943-12.102-14.172-156.41 1.331-164.401z" fill="#fff4e5"/><path d="m155.324 457.973v-354.222c0-.906.027-1.805.068-2.701h-31.274c-12.784 0-23.148 10.364-23.148 23.148v323.807c0 12.784 10.364 23.148 23.148 23.148h32.738c-.991-4.235-1.532-8.643-1.532-13.18z" fill="#ffe0b7"/><path d="m318.92 46.231h-9.036c-2.719 0-5.029-1.985-5.439-4.673-3.592-23.531-23.911-41.558-48.445-41.558s-44.853 18.027-48.445 41.558c-.41 2.688-2.72 4.673-5.439 4.673h-9.036c-11.223 0-20.321 9.098-20.321 20.321v36.77c0 11.223 9.098 20.321 20.321 20.321h125.84c11.223 0 20.321-9.098 20.321-20.321v-36.77c.001-11.223-9.098-20.321-20.321-20.321z" fill="#93bce8"/><g fill="#29ce69"><path d="m167.802 207.923c-.01 0-.019 0-.029 0-2.325-.009-4.523-1.064-5.983-2.873l-18.885-23.393c-2.68-3.32-2.161-8.185 1.159-10.865 3.319-2.679 8.184-2.162 10.865 1.159l12.918 16.002 28.014-34.184c2.704-3.3 7.572-3.784 10.873-1.078 3.3 2.705 3.783 7.573 1.078 10.873l-34.035 41.531c-1.467 1.79-3.66 2.828-5.975 2.828z"/><path d="m167.802 289.543c-.01 0-.019 0-.029 0-2.325-.009-4.523-1.064-5.983-2.873l-18.885-23.393c-2.68-3.32-2.161-8.185 1.159-10.865 3.319-2.679 8.184-2.162 10.865 1.159l12.918 16.002 28.014-34.184c2.704-3.3 7.572-3.784 10.873-1.078 3.3 2.705 3.783 7.573 1.078 10.873l-34.035 41.531c-1.467 1.791-3.66 2.828-5.975 2.828z"/><path d="m167.802 371.164c-.01 0-.019 0-.029 0-2.325-.009-4.523-1.064-5.983-2.873l-18.885-23.393c-2.68-3.32-2.161-8.185 1.159-10.865 3.319-2.68 8.184-2.162 10.865 1.159l12.918 16.002 28.014-34.185c2.704-3.3 7.572-3.784 10.873-1.078 3.3 2.705 3.783 7.573 1.078 10.873l-34.035 41.532c-1.467 1.791-3.66 2.828-5.975 2.828z"/></g><path d="m363.083 187.157h-125.808c-4.267 0-7.726-3.459-7.726-7.726s3.459-7.726 7.726-7.726h125.807c4.268 0 7.726 3.459 7.726 7.726s-3.458 7.726-7.725 7.726z" fill="#3e4f61"/><path d="m363.083 268.778h-125.808c-4.267 0-7.726-3.459-7.726-7.726s3.459-7.726 7.726-7.726h125.807c4.268 0 7.726 3.459 7.726 7.726.001 4.266-3.458 7.726-7.725 7.726z" fill="#3e4f61"/><path d="m363.083 350.398h-125.808c-4.267 0-7.726-3.459-7.726-7.726s3.459-7.726 7.726-7.726h125.807c4.268 0 7.726 3.459 7.726 7.726.001 4.267-3.458 7.726-7.725 7.726z" fill="#3e4f61"/><path d="m342.649 424.606v46.546l68.381-72.687v-.007h-42.234c-14.44.001-26.147 11.707-26.147 26.148z" fill="#ffe0b7"/></g></svg>